<mxfile host="Electron" agent="Mozilla/5.0 (Windows NT 10.0; Win64; x64) AppleWebKit/537.36 (KHTML, like Gecko) draw.io/24.7.8 Chrome/128.0.6613.36 Electron/32.0.1 Safari/537.36" version="24.7.8" pages="8">
  <diagram name="SystemBlockDiagram" id="c2iEev-Jstg_Icvi2VbT">
    <mxGraphModel dx="1434" dy="844" grid="1" gridSize="10" guides="1" tooltips="1" connect="1" arrows="1" fold="1" page="1" pageScale="1" pageWidth="1169" pageHeight="827" math="0" shadow="0">
      <root>
        <mxCell id="0" />
        <mxCell id="1" parent="0" />
        <mxCell id="lPVegLePywHtXsEGlFOO-2" value="&lt;div style=&quot;margin-top: 0pt; margin-bottom: 0pt; text-indent: -0.38in; font-size: 15px;&quot; class=&quot;O0&quot;&gt;&lt;span style=&quot;font-size: 15px; font-weight: bold;&quot;&gt;NUCLEO-G0B1RE&lt;/span&gt;&lt;/div&gt;" style="rounded=0;whiteSpace=wrap;html=1;strokeWidth=2;align=center;horizontal=1;verticalAlign=top;fontSize=15;labelBackgroundColor=none;fontFamily=Calibri;fillColor=#ffe6cc;strokeColor=#d79b00;" parent="1" vertex="1">
          <mxGeometry x="256" y="120" width="679" height="420" as="geometry" />
        </mxCell>
        <mxCell id="lPVegLePywHtXsEGlFOO-3" value="&lt;div class=&quot;O0&quot; style=&quot;margin-top: 0pt; margin-bottom: 0pt; text-indent: -0.38in; font-size: 15px;&quot;&gt;&lt;div class=&quot;O0&quot; style=&quot;margin-top: 0pt; margin-bottom: 0pt; text-indent: -0.38in; font-size: 15px;&quot;&gt;&lt;span style=&quot;font-size: 15px; font-weight: bold;&quot;&gt;STM32G0B1RE&lt;/span&gt;&lt;/div&gt;&lt;/div&gt;" style="rounded=0;whiteSpace=wrap;html=1;strokeWidth=2;align=center;horizontal=1;verticalAlign=top;fontSize=15;labelBackgroundColor=none;fontFamily=Calibri;fillColor=#dae8fc;strokeColor=#6c8ebf;" parent="1" vertex="1">
          <mxGeometry x="667.5" y="155" width="216" height="350" as="geometry" />
        </mxCell>
        <mxCell id="lPVegLePywHtXsEGlFOO-5" value="UART" style="rounded=0;whiteSpace=wrap;html=1;align=center;verticalAlign=middle;fontFamily=Calibri;fontStyle=1;fillColor=#ffff88;strokeColor=#36393d;" parent="1" vertex="1">
          <mxGeometry x="627.5" y="453" width="60" height="39" as="geometry" />
        </mxCell>
        <mxCell id="lPVegLePywHtXsEGlFOO-10" value="ST-Link" style="rounded=0;whiteSpace=wrap;html=1;fontFamily=Calibri;fontStyle=1;verticalAlign=bottom;fillColor=#d5e8d4;strokeColor=#82b366;" parent="1" vertex="1">
          <mxGeometry x="315.5" y="441.6" width="100" height="61.8" as="geometry" />
        </mxCell>
        <mxCell id="lPVegLePywHtXsEGlFOO-18" value="Digital Input" style="endArrow=blockThin;startArrow=none;html=1;rounded=0;entryX=0;entryY=0.5;entryDx=0;entryDy=0;exitX=1;exitY=0.5;exitDx=0;exitDy=0;strokeWidth=1;startFill=0;endFill=1;fontFamily=Calibri;" parent="1" source="lPVegLePywHtXsEGlFOO-27" target="lPVegLePywHtXsEGlFOO-29" edge="1">
          <mxGeometry width="50" height="50" relative="1" as="geometry">
            <mxPoint x="-111" y="580" as="sourcePoint" />
            <mxPoint x="29" y="580" as="targetPoint" />
          </mxGeometry>
        </mxCell>
        <mxCell id="lPVegLePywHtXsEGlFOO-19" value="PWM Output" style="endArrow=blockThin;startArrow=none;html=1;rounded=0;entryX=1;entryY=0.5;entryDx=0;entryDy=0;exitX=0;exitY=0.5;exitDx=0;exitDy=0;strokeWidth=1;startFill=0;endFill=1;fontFamily=Calibri;" parent="1" source="lPVegLePywHtXsEGlFOO-30" target="lPVegLePywHtXsEGlFOO-28" edge="1">
          <mxGeometry width="50" height="50" relative="1" as="geometry">
            <mxPoint x="29" y="627" as="sourcePoint" />
            <mxPoint x="-111" y="627" as="targetPoint" />
          </mxGeometry>
        </mxCell>
        <mxCell id="lPVegLePywHtXsEGlFOO-22" value="Software Feature" style="rounded=0;whiteSpace=wrap;html=1;horizontal=1;verticalAlign=top;flipV=0;fontFamily=Calibri;fontStyle=1;fillColor=#f8cecc;strokeColor=#b85450;" parent="1" vertex="1">
          <mxGeometry x="705.5" y="200.5" width="159.5" height="247" as="geometry" />
        </mxCell>
        <mxCell id="lPVegLePywHtXsEGlFOO-23" value="Chattering&lt;div&gt;Prevention&lt;/div&gt;" style="rounded=0;whiteSpace=wrap;html=1;flipV=0;fontFamily=Calibri;fontStyle=1;fillColor=#e1d5e7;strokeColor=#9673a6;" parent="1" vertex="1">
          <mxGeometry x="725.25" y="240.5" width="120" height="62" as="geometry" />
        </mxCell>
        <mxCell id="lPVegLePywHtXsEGlFOO-24" value="LED State Control&lt;div&gt;PWM Control&lt;/div&gt;" style="rounded=0;whiteSpace=wrap;html=1;verticalAlign=middle;flipV=0;fontFamily=Calibri;fontStyle=1;fillColor=#e1d5e7;strokeColor=#9673a6;" parent="1" vertex="1">
          <mxGeometry x="725.25" y="351.5" width="120" height="62" as="geometry" />
        </mxCell>
        <mxCell id="lPVegLePywHtXsEGlFOO-25" value="Button Event" style="endArrow=blockThin;startArrow=none;html=1;rounded=0;exitX=0.5;exitY=1;exitDx=0;exitDy=0;strokeWidth=1;startFill=0;endFill=1;fontFamily=Calibri;labelBorderColor=none;labelBackgroundColor=none;" parent="1" source="lPVegLePywHtXsEGlFOO-23" target="lPVegLePywHtXsEGlFOO-24" edge="1">
          <mxGeometry width="50" height="50" relative="1" as="geometry">
            <mxPoint x="580" y="330.5" as="sourcePoint" />
            <mxPoint x="440" y="330.5" as="targetPoint" />
          </mxGeometry>
        </mxCell>
        <mxCell id="lPVegLePywHtXsEGlFOO-27" value="Button" style="rounded=0;whiteSpace=wrap;html=1;fontFamily=Calibri;fontStyle=1;verticalAlign=bottom;fillColor=#d5e8d4;strokeColor=#82b366;" parent="1" vertex="1">
          <mxGeometry x="315.5" y="240.5" width="100" height="61.8" as="geometry" />
        </mxCell>
        <mxCell id="lPVegLePywHtXsEGlFOO-28" value="LED" style="rounded=0;whiteSpace=wrap;html=1;fontFamily=Calibri;fontStyle=1;verticalAlign=bottom;fillColor=#d5e8d4;strokeColor=#82b366;" parent="1" vertex="1">
          <mxGeometry x="315.5" y="351.6" width="100" height="61.8" as="geometry" />
        </mxCell>
        <mxCell id="lPVegLePywHtXsEGlFOO-29" value="GPIO" style="rounded=0;whiteSpace=wrap;html=1;align=center;verticalAlign=middle;fontFamily=Calibri;fontStyle=1;fillColor=#ffff88;strokeColor=#36393d;" parent="1" vertex="1">
          <mxGeometry x="627.5" y="253" width="60" height="37" as="geometry" />
        </mxCell>
        <mxCell id="lPVegLePywHtXsEGlFOO-30" value="Timer" style="rounded=0;whiteSpace=wrap;html=1;align=center;verticalAlign=middle;fontFamily=Calibri;fontStyle=1;fillColor=#ffff88;strokeColor=#36393d;" parent="1" vertex="1">
          <mxGeometry x="627.5" y="364" width="60" height="37" as="geometry" />
        </mxCell>
        <mxCell id="lPVegLePywHtXsEGlFOO-31" value="State[LED, Button] / Log" style="endArrow=blockThin;startArrow=none;html=1;rounded=0;entryX=1;entryY=0.5;entryDx=0;entryDy=0;exitX=0;exitY=0.5;exitDx=0;exitDy=0;strokeWidth=1;startFill=0;endFill=1;fontFamily=Calibri;" parent="1" source="lPVegLePywHtXsEGlFOO-5" target="lPVegLePywHtXsEGlFOO-10" edge="1">
          <mxGeometry width="50" height="50" relative="1" as="geometry">
            <mxPoint x="602.5" y="253.89999999999998" as="sourcePoint" />
            <mxPoint x="445" y="236.89999999999998" as="targetPoint" />
          </mxGeometry>
        </mxCell>
        <mxCell id="lPVegLePywHtXsEGlFOO-32" value="" style="endArrow=blockThin;startArrow=none;html=1;rounded=0;entryX=1;entryY=0.5;entryDx=0;entryDy=0;exitX=0.475;exitY=0.996;exitDx=0;exitDy=0;strokeWidth=1;startFill=0;endFill=1;fontFamily=Calibri;edgeStyle=orthogonalEdgeStyle;exitPerimeter=0;" parent="1" source="lPVegLePywHtXsEGlFOO-22" target="lPVegLePywHtXsEGlFOO-5" edge="1">
          <mxGeometry width="50" height="50" relative="1" as="geometry">
            <mxPoint x="637.5" y="256" as="sourcePoint" />
            <mxPoint x="457.5" y="255" as="targetPoint" />
          </mxGeometry>
        </mxCell>
        <mxCell id="lPVegLePywHtXsEGlFOO-35" value="LED Request [optional]" style="endArrow=blockThin;startArrow=none;html=1;rounded=0;entryX=0.75;entryY=1;entryDx=0;entryDy=0;exitX=0.5;exitY=1;exitDx=0;exitDy=0;strokeWidth=1;startFill=0;endFill=1;fontFamily=Calibri;edgeStyle=orthogonalEdgeStyle;" parent="1" source="lPVegLePywHtXsEGlFOO-10" target="lPVegLePywHtXsEGlFOO-24" edge="1">
          <mxGeometry width="50" height="50" relative="1" as="geometry">
            <mxPoint x="648" y="483" as="sourcePoint" />
            <mxPoint x="478" y="483" as="targetPoint" />
            <Array as="points">
              <mxPoint x="418" y="524" />
              <mxPoint x="826" y="524" />
            </Array>
          </mxGeometry>
        </mxCell>
        <mxCell id="lPVegLePywHtXsEGlFOO-38" value="&lt;span style=&quot;font-size: 11px; text-wrap: nowrap; background-color: rgb(255, 255, 255);&quot;&gt;LED Request [optional]&lt;/span&gt;" style="text;html=1;align=center;verticalAlign=middle;whiteSpace=wrap;rounded=0;fontFamily=Calibri;" parent="1" vertex="1">
          <mxGeometry x="166" y="447.5" width="60" height="30" as="geometry" />
        </mxCell>
        <mxCell id="lPVegLePywHtXsEGlFOO-39" value="" style="fontColor=#0066CC;verticalAlign=top;verticalLabelPosition=bottom;labelPosition=center;align=center;html=1;outlineConnect=0;fillColor=#CCCCCC;strokeColor=#6881B3;gradientColor=none;gradientDirection=north;strokeWidth=2;shape=mxgraph.networks.pc;fontFamily=Calibri;" parent="1" vertex="1">
          <mxGeometry x="40" y="437.5" width="100" height="70" as="geometry" />
        </mxCell>
        <mxCell id="lPVegLePywHtXsEGlFOO-40" value="State[LED, Button] / Log" style="endArrow=blockThin;startArrow=blockThin;html=1;rounded=0;entryX=1;entryY=0.5;entryDx=0;entryDy=0;strokeWidth=1;startFill=1;endFill=1;fontFamily=Calibri;entryPerimeter=0;" parent="1" source="lPVegLePywHtXsEGlFOO-10" target="lPVegLePywHtXsEGlFOO-39" edge="1">
          <mxGeometry x="-0.3333" y="11" width="50" height="50" relative="1" as="geometry">
            <mxPoint x="648" y="483" as="sourcePoint" />
            <mxPoint x="478" y="483" as="targetPoint" />
            <mxPoint as="offset" />
          </mxGeometry>
        </mxCell>
        <mxCell id="lPVegLePywHtXsEGlFOO-41" value="RS232C" style="text;html=1;align=center;verticalAlign=middle;whiteSpace=wrap;rounded=0;fontFamily=Calibri;fontStyle=1;fontSize=20;" parent="1" vertex="1">
          <mxGeometry x="182" y="492" width="60" height="30" as="geometry" />
        </mxCell>
        <mxCell id="lPVegLePywHtXsEGlFOO-42" value="" style="endArrow=blockThin;startArrow=none;html=1;rounded=0;entryX=0;entryY=0.5;entryDx=0;entryDy=0;exitX=1;exitY=0.5;exitDx=0;exitDy=0;strokeWidth=1;startFill=0;endFill=1;fontFamily=Calibri;" parent="1" source="lPVegLePywHtXsEGlFOO-29" target="lPVegLePywHtXsEGlFOO-23" edge="1">
          <mxGeometry width="50" height="50" relative="1" as="geometry">
            <mxPoint x="467.5" y="282" as="sourcePoint" />
            <mxPoint x="637.5" y="282" as="targetPoint" />
          </mxGeometry>
        </mxCell>
        <mxCell id="lPVegLePywHtXsEGlFOO-43" value="" style="endArrow=blockThin;startArrow=none;html=1;rounded=0;entryX=1;entryY=0.5;entryDx=0;entryDy=0;exitX=0;exitY=0.5;exitDx=0;exitDy=0;strokeWidth=1;startFill=0;endFill=1;fontFamily=Calibri;" parent="1" source="lPVegLePywHtXsEGlFOO-24" target="lPVegLePywHtXsEGlFOO-30" edge="1">
          <mxGeometry width="50" height="50" relative="1" as="geometry">
            <mxPoint x="697.5" y="279" as="sourcePoint" />
            <mxPoint x="738.5" y="279" as="targetPoint" />
          </mxGeometry>
        </mxCell>
        <mxCell id="Dhf1BJ36f9NFJUOVtASJ-2" value="" style="html=1;shape=mxgraph.electrical.electro-mechanical.pushbutton;aspect=fixed;elSwitchState=off;" parent="1" vertex="1">
          <mxGeometry x="336.75" y="263.73999999999995" width="57.51" height="15.33" as="geometry" />
        </mxCell>
        <mxCell id="Dhf1BJ36f9NFJUOVtASJ-3" value="" style="verticalLabelPosition=bottom;shadow=0;dashed=0;align=center;html=1;verticalAlign=top;shape=mxgraph.electrical.opto_electronics.led_2;pointerEvents=1;direction=west;" parent="1" vertex="1">
          <mxGeometry x="345.5" y="372.5" width="40" height="20" as="geometry" />
        </mxCell>
        <mxCell id="Dhf1BJ36f9NFJUOVtASJ-4" value="" style="pointerEvents=1;shadow=0;dashed=0;html=1;strokeColor=none;fillColor=#4495D1;labelPosition=center;verticalLabelPosition=bottom;verticalAlign=top;align=center;outlineConnect=0;shape=mxgraph.veeam.cpu;" parent="1" vertex="1">
          <mxGeometry x="349.5" y="459.25" width="32" height="26.5" as="geometry" />
        </mxCell>
        <mxCell id="N1TQZO-lkI6IXCdbMMZr-1" value="&lt;h1 style=&quot;margin-top: 0px;&quot;&gt;ALM System Block Diagram&lt;/h1&gt;" style="text;html=1;whiteSpace=wrap;overflow=hidden;rounded=0;fontFamily=Calibri;" vertex="1" parent="1">
          <mxGeometry x="40" y="40" width="420" height="40" as="geometry" />
        </mxCell>
      </root>
    </mxGraphModel>
  </diagram>
  <diagram name="SoftwareBlockDiagram" id="LWm0pybTjaTIlLT1HPGq">
    <mxGraphModel dx="1434" dy="844" grid="1" gridSize="10" guides="1" tooltips="1" connect="1" arrows="1" fold="1" page="1" pageScale="1" pageWidth="1169" pageHeight="827" math="0" shadow="0">
      <root>
        <mxCell id="9KhxK2Ew6nsZcRuOPk-c-0" />
        <mxCell id="9KhxK2Ew6nsZcRuOPk-c-1" parent="9KhxK2Ew6nsZcRuOPk-c-0" />
        <mxCell id="9KhxK2Ew6nsZcRuOPk-c-2" value="Driver" style="rounded=0;whiteSpace=wrap;html=1;fillColor=#dae8fc;strokeColor=#6c8ebf;verticalAlign=top;fontFamily=Calibri;fontSize=14;fontStyle=5" parent="9KhxK2Ew6nsZcRuOPk-c-1" vertex="1">
          <mxGeometry x="40" y="407" width="540" height="84" as="geometry" />
        </mxCell>
        <mxCell id="9KhxK2Ew6nsZcRuOPk-c-3" value="GPIO" style="rounded=0;whiteSpace=wrap;html=1;fillColor=#dae8fc;strokeColor=#6c8ebf;verticalAlign=middle;fontFamily=Calibri;fontSize=14;fontStyle=1" parent="9KhxK2Ew6nsZcRuOPk-c-1" vertex="1">
          <mxGeometry x="55" y="435" width="130" height="42" as="geometry" />
        </mxCell>
        <mxCell id="9KhxK2Ew6nsZcRuOPk-c-4" value="Timer" style="rounded=0;whiteSpace=wrap;html=1;fillColor=#dae8fc;strokeColor=#6c8ebf;verticalAlign=middle;fontFamily=Calibri;fontSize=14;fontStyle=1" parent="9KhxK2Ew6nsZcRuOPk-c-1" vertex="1">
          <mxGeometry x="245" y="435" width="130" height="42" as="geometry" />
        </mxCell>
        <mxCell id="9KhxK2Ew6nsZcRuOPk-c-5" value="UART" style="rounded=0;whiteSpace=wrap;html=1;fillColor=#dae8fc;strokeColor=#6c8ebf;verticalAlign=middle;fontFamily=Calibri;fontSize=14;fontStyle=1" parent="9KhxK2Ew6nsZcRuOPk-c-1" vertex="1">
          <mxGeometry x="435" y="435" width="130" height="42" as="geometry" />
        </mxCell>
        <mxCell id="9KhxK2Ew6nsZcRuOPk-c-9" value="Middleware" style="rounded=0;whiteSpace=wrap;html=1;fillColor=#f8cecc;strokeColor=#b85450;verticalAlign=top;fontFamily=Calibri;fontSize=14;fontStyle=5" parent="9KhxK2Ew6nsZcRuOPk-c-1" vertex="1">
          <mxGeometry x="40" y="310" width="540" height="84" as="geometry" />
        </mxCell>
        <mxCell id="9KhxK2Ew6nsZcRuOPk-c-10" value="HAL" style="rounded=0;whiteSpace=wrap;html=1;horizontal=1;verticalAlign=middle;flipV=0;fontFamily=Calibri;fontStyle=1;fillColor=#f8cecc;strokeColor=#b85450;fontSize=14;" parent="9KhxK2Ew6nsZcRuOPk-c-1" vertex="1">
          <mxGeometry x="55" y="336" width="250" height="45" as="geometry" />
        </mxCell>
        <mxCell id="9KhxK2Ew6nsZcRuOPk-c-11" value="FreeRTOS" style="rounded=0;whiteSpace=wrap;html=1;horizontal=1;verticalAlign=middle;flipV=0;fontFamily=Calibri;fontStyle=1;fillColor=#f8cecc;strokeColor=#b85450;fontSize=14;" parent="9KhxK2Ew6nsZcRuOPk-c-1" vertex="1">
          <mxGeometry x="315" y="336" width="250" height="45" as="geometry" />
        </mxCell>
        <mxCell id="9KhxK2Ew6nsZcRuOPk-c-12" value="Application" style="rounded=0;whiteSpace=wrap;html=1;fillColor=#e1d5e7;strokeColor=#9673a6;verticalAlign=top;fontFamily=Calibri;fontSize=14;fontStyle=5" parent="9KhxK2Ew6nsZcRuOPk-c-1" vertex="1">
          <mxGeometry x="40" y="160" width="540" height="140" as="geometry" />
        </mxCell>
        <mxCell id="9KhxK2Ew6nsZcRuOPk-c-13" value="SysTick [1ms]" style="rounded=0;whiteSpace=wrap;html=1;flipV=0;fontFamily=Calibri;fontStyle=1;fillColor=#e1d5e7;strokeColor=#9673a6;verticalAlign=top;fontSize=14;" parent="9KhxK2Ew6nsZcRuOPk-c-1" vertex="1">
          <mxGeometry x="55" y="190" width="250" height="90" as="geometry" />
        </mxCell>
        <mxCell id="9KhxK2Ew6nsZcRuOPk-c-14" value="ISB" style="rounded=0;whiteSpace=wrap;html=1;flipV=0;fontFamily=Calibri;fontStyle=1;fillColor=#e1d5e7;strokeColor=#9673a6;fontSize=14;" parent="9KhxK2Ew6nsZcRuOPk-c-1" vertex="1">
          <mxGeometry x="70" y="219" width="100" height="42" as="geometry" />
        </mxCell>
        <mxCell id="9KhxK2Ew6nsZcRuOPk-c-15" value="ISL" style="rounded=0;whiteSpace=wrap;html=1;flipV=0;fontFamily=Calibri;fontStyle=1;fillColor=#e1d5e7;strokeColor=#9673a6;fontSize=14;" parent="9KhxK2Ew6nsZcRuOPk-c-1" vertex="1">
          <mxGeometry x="190" y="219" width="100" height="42" as="geometry" />
        </mxCell>
        <mxCell id="9KhxK2Ew6nsZcRuOPk-c-17" value="Task" style="rounded=0;whiteSpace=wrap;html=1;flipV=0;fontFamily=Calibri;fontStyle=1;fillColor=#e1d5e7;strokeColor=#9673a6;verticalAlign=top;fontSize=14;" parent="9KhxK2Ew6nsZcRuOPk-c-1" vertex="1">
          <mxGeometry x="315" y="190" width="250" height="90" as="geometry" />
        </mxCell>
        <mxCell id="9KhxK2Ew6nsZcRuOPk-c-18" value="TOB" style="rounded=0;whiteSpace=wrap;html=1;flipV=0;fontFamily=Calibri;fontStyle=1;fillColor=#e1d5e7;strokeColor=#9673a6;fontSize=14;" parent="9KhxK2Ew6nsZcRuOPk-c-1" vertex="1">
          <mxGeometry x="332.5" y="219" width="65" height="42" as="geometry" />
        </mxCell>
        <mxCell id="9KhxK2Ew6nsZcRuOPk-c-19" value="TOL" style="rounded=0;whiteSpace=wrap;html=1;flipV=0;fontFamily=Calibri;fontStyle=1;fillColor=#e1d5e7;strokeColor=#9673a6;fontSize=14;" parent="9KhxK2Ew6nsZcRuOPk-c-1" vertex="1">
          <mxGeometry x="410" y="219" width="65" height="42" as="geometry" />
        </mxCell>
        <mxCell id="9KhxK2Ew6nsZcRuOPk-c-20" value="TOS" style="rounded=0;whiteSpace=wrap;html=1;flipV=0;fontFamily=Calibri;fontStyle=1;fillColor=#e1d5e7;strokeColor=#9673a6;fontSize=14;" parent="9KhxK2Ew6nsZcRuOPk-c-1" vertex="1">
          <mxGeometry x="485" y="219" width="65" height="42" as="geometry" />
        </mxCell>
        <mxCell id="ziDlnkY9fh_uYq5BgtAg-0" value="&lt;h1 style=&quot;margin-top: 0px;&quot;&gt;ALM Software Block Diagram&lt;/h1&gt;&lt;p&gt;&lt;br&gt;&lt;/p&gt;&lt;p&gt;&lt;br&gt;&lt;/p&gt;" style="text;html=1;whiteSpace=wrap;overflow=hidden;rounded=0;fontFamily=Calibri;" vertex="1" parent="9KhxK2Ew6nsZcRuOPk-c-1">
          <mxGeometry x="40" y="40" width="420" height="40" as="geometry" />
        </mxCell>
        <mxCell id="ziDlnkY9fh_uYq5BgtAg-1" value="&lt;span style=&quot;font-size: 15px;&quot;&gt;HAL : Hardware Abstraction Layer&lt;/span&gt;&lt;div style=&quot;font-size: 15px;&quot;&gt;&lt;span style=&quot;font-size: 15px;&quot;&gt;ISB : Interrupt Service for Button&lt;/span&gt;&lt;/div&gt;&lt;div style=&quot;font-size: 15px;&quot;&gt;&lt;div style=&quot;font-size: 15px;&quot;&gt;&lt;span style=&quot;font-size: 15px;&quot;&gt;ISL : Interrupt Service for LED&lt;/span&gt;&lt;/div&gt;&lt;/div&gt;" style="text;html=1;align=left;verticalAlign=top;whiteSpace=wrap;rounded=0;fontFamily=Calibri;labelBackgroundColor=default;fontSize=15;" vertex="1" parent="9KhxK2Ew6nsZcRuOPk-c-1">
          <mxGeometry x="40" y="80" width="260" height="70" as="geometry" />
        </mxCell>
        <mxCell id="ziDlnkY9fh_uYq5BgtAg-2" value="&lt;div style=&quot;font-size: 15px;&quot;&gt;&lt;span style=&quot;font-size: 15px;&quot;&gt;TOB : Task Of Button&lt;/span&gt;&lt;/div&gt;&lt;div style=&quot;font-size: 15px;&quot;&gt;TOL : Task of LED&lt;br&gt;&lt;/div&gt;&lt;div style=&quot;font-size: 15px;&quot;&gt;&lt;div&gt;TOS : Task of SWD (Serial Wire Debug)&lt;/div&gt;&lt;/div&gt;" style="text;html=1;align=left;verticalAlign=top;whiteSpace=wrap;rounded=0;fontFamily=Calibri;labelBackgroundColor=default;fontSize=15;" vertex="1" parent="9KhxK2Ew6nsZcRuOPk-c-1">
          <mxGeometry x="280" y="80" width="260" height="70" as="geometry" />
        </mxCell>
      </root>
    </mxGraphModel>
  </diagram>
  <diagram id="p6Y_6Ztln_70PLFEH8g8" name="PackageDiagram">
    <mxGraphModel dx="1434" dy="844" grid="1" gridSize="10" guides="1" tooltips="1" connect="1" arrows="1" fold="1" page="1" pageScale="1" pageWidth="1654" pageHeight="1169" math="0" shadow="0">
      <root>
        <mxCell id="0" />
        <mxCell id="1" parent="0" />
        <mxCell id="DuBXzEyR3vmLx20q9r14-1" value="HAL" style="shape=umlFrame;whiteSpace=wrap;html=1;pointerEvents=0;recursiveResize=0;container=1;collapsible=0;width=50;height=30;labelBackgroundColor=default;fontFamily=Calibri;fontStyle=5" parent="1" vertex="1">
          <mxGeometry x="40" y="200" width="80" height="640" as="geometry" />
        </mxCell>
        <mxCell id="DuBXzEyR3vmLx20q9r14-2" value="SysTick [1ms]" style="shape=umlFrame;whiteSpace=wrap;html=1;pointerEvents=0;recursiveResize=0;container=1;collapsible=0;width=140;height=30;fontFamily=Calibri;fontStyle=5" parent="1" vertex="1">
          <mxGeometry x="295.78" y="200" width="799.23" height="640" as="geometry" />
        </mxCell>
        <mxCell id="DuBXzEyR3vmLx20q9r14-3" value="ISB" style="shape=folder;fontStyle=5;tabWidth=110;tabHeight=30;tabPosition=left;html=1;boundedLbl=1;labelInHeader=1;container=1;collapsible=0;recursiveResize=0;whiteSpace=wrap;verticalAlign=top;align=center;fontFamily=Calibri;" parent="DuBXzEyR3vmLx20q9r14-2" vertex="1">
          <mxGeometry x="30" y="60" width="150" height="250" as="geometry" />
        </mxCell>
        <mxCell id="DuBXzEyR3vmLx20q9r14-4" value="vidIsbInitialize" style="html=1;whiteSpace=wrap;align=center;fontFamily=Calibri;" parent="DuBXzEyR3vmLx20q9r14-3" vertex="1">
          <mxGeometry width="110" height="30" relative="1" as="geometry">
            <mxPoint x="20" y="50" as="offset" />
          </mxGeometry>
        </mxCell>
        <mxCell id="DuBXzEyR3vmLx20q9r14-5" value="vidIsbService" style="html=1;whiteSpace=wrap;verticalAlign=top;fontFamily=Calibri;" parent="DuBXzEyR3vmLx20q9r14-3" vertex="1">
          <mxGeometry x="20" y="100" width="110" height="130" as="geometry" />
        </mxCell>
        <mxCell id="DuBXzEyR3vmLx20q9r14-8" value="XBM" style="shape=folder;fontStyle=5;tabWidth=69;tabHeight=30;tabPosition=left;html=1;boundedLbl=1;labelInHeader=1;container=1;collapsible=0;recursiveResize=0;whiteSpace=wrap;verticalAlign=top;align=center;fontFamily=Calibri;" parent="DuBXzEyR3vmLx20q9r14-2" vertex="1">
          <mxGeometry x="660" y="60" width="110" height="200" as="geometry" />
        </mxCell>
        <mxCell id="DuBXzEyR3vmLx20q9r14-11" value="" style="html=1;verticalAlign=bottom;labelBackgroundColor=none;endArrow=block;endFill=1;rounded=0;exitX=1;exitY=0.5;exitDx=0;exitDy=0;entryX=-0.008;entryY=0.322;entryDx=0;entryDy=0;entryPerimeter=0;fontFamily=Calibri;" parent="DuBXzEyR3vmLx20q9r14-2" source="DuBXzEyR3vmLx20q9r14-4" target="DuBXzEyR3vmLx20q9r14-8" edge="1">
          <mxGeometry width="160" relative="1" as="geometry">
            <mxPoint x="60" y="195" as="sourcePoint" />
            <mxPoint x="-110" y="197" as="targetPoint" />
          </mxGeometry>
        </mxCell>
        <mxCell id="DuBXzEyR3vmLx20q9r14-12" value="vidXbmRegister(tstrXbmRegisterArgs* pstrArgs)" style="edgeLabel;html=1;align=center;verticalAlign=middle;resizable=0;points=[];fontFamily=Calibri;" parent="DuBXzEyR3vmLx20q9r14-11" vertex="1" connectable="0">
          <mxGeometry x="-0.1605" y="-1" relative="1" as="geometry">
            <mxPoint x="-59" as="offset" />
          </mxGeometry>
        </mxCell>
        <mxCell id="DuBXzEyR3vmLx20q9r14-13" value="" style="html=1;verticalAlign=bottom;labelBackgroundColor=none;endArrow=block;endFill=1;rounded=0;exitX=1.005;exitY=0.304;exitDx=0;exitDy=0;entryX=0;entryY=0;entryDx=0;entryDy=140;entryPerimeter=0;exitPerimeter=0;fontFamily=Calibri;" parent="DuBXzEyR3vmLx20q9r14-2" edge="1">
          <mxGeometry width="160" relative="1" as="geometry">
            <mxPoint x="160.54999999999973" y="207.51999999999998" as="sourcePoint" />
            <mxPoint x="660" y="208" as="targetPoint" />
          </mxGeometry>
        </mxCell>
        <mxCell id="DuBXzEyR3vmLx20q9r14-14" value="vidXbmProcess(tenuXbmEvent enuEvent)" style="edgeLabel;html=1;align=center;verticalAlign=middle;resizable=0;points=[];fontFamily=Calibri;" parent="DuBXzEyR3vmLx20q9r14-13" vertex="1" connectable="0">
          <mxGeometry x="-0.1605" y="-1" relative="1" as="geometry">
            <mxPoint x="-71" as="offset" />
          </mxGeometry>
        </mxCell>
        <mxCell id="DuBXzEyR3vmLx20q9r14-15" value="" style="html=1;verticalAlign=bottom;labelBackgroundColor=none;endArrow=block;endFill=1;rounded=0;exitX=-0.011;exitY=0.902;exitDx=0;exitDy=0;entryX=0.994;entryY=0.613;entryDx=0;entryDy=0;entryPerimeter=0;exitPerimeter=0;dashed=1;fontFamily=Calibri;" parent="DuBXzEyR3vmLx20q9r14-2" source="DuBXzEyR3vmLx20q9r14-8" target="DuBXzEyR3vmLx20q9r14-5" edge="1">
          <mxGeometry width="160" relative="1" as="geometry">
            <mxPoint x="171" y="210" as="sourcePoint" />
            <mxPoint x="500" y="210" as="targetPoint" />
          </mxGeometry>
        </mxCell>
        <mxCell id="DuBXzEyR3vmLx20q9r14-16" value="vidXbmNotifyCallback(tenuXbmNotify enuType, tstrXbmNotifyArgs* pArgs)" style="edgeLabel;html=1;align=center;verticalAlign=middle;resizable=0;points=[];fontFamily=Calibri;" parent="DuBXzEyR3vmLx20q9r14-15" vertex="1" connectable="0">
          <mxGeometry x="-0.1605" y="-1" relative="1" as="geometry">
            <mxPoint x="11" as="offset" />
          </mxGeometry>
        </mxCell>
        <mxCell id="DuBXzEyR3vmLx20q9r14-17" value="ISL" style="shape=folder;fontStyle=5;tabWidth=110;tabHeight=30;tabPosition=left;html=1;boundedLbl=1;labelInHeader=1;container=1;collapsible=0;recursiveResize=0;whiteSpace=wrap;verticalAlign=top;align=center;fontFamily=Calibri;" parent="DuBXzEyR3vmLx20q9r14-2" vertex="1">
          <mxGeometry x="30" y="340" width="150" height="250" as="geometry" />
        </mxCell>
        <mxCell id="DuBXzEyR3vmLx20q9r14-18" value="vidIslInitialize" style="html=1;whiteSpace=wrap;align=center;fontFamily=Calibri;" parent="DuBXzEyR3vmLx20q9r14-17" vertex="1">
          <mxGeometry width="110" height="30" relative="1" as="geometry">
            <mxPoint x="20" y="50" as="offset" />
          </mxGeometry>
        </mxCell>
        <mxCell id="DuBXzEyR3vmLx20q9r14-19" value="vidIslService" style="html=1;whiteSpace=wrap;verticalAlign=top;fontFamily=Calibri;" parent="DuBXzEyR3vmLx20q9r14-17" vertex="1">
          <mxGeometry x="20" y="100" width="110" height="130" as="geometry" />
        </mxCell>
        <mxCell id="DuBXzEyR3vmLx20q9r14-20" value="XLM" style="shape=folder;fontStyle=5;tabWidth=69;tabHeight=30;tabPosition=left;html=1;boundedLbl=1;labelInHeader=1;container=1;collapsible=0;recursiveResize=0;whiteSpace=wrap;verticalAlign=top;align=center;fontFamily=Calibri;" parent="DuBXzEyR3vmLx20q9r14-2" vertex="1">
          <mxGeometry x="660" y="340" width="110" height="200" as="geometry" />
        </mxCell>
        <mxCell id="DuBXzEyR3vmLx20q9r14-21" value="" style="html=1;verticalAlign=bottom;labelBackgroundColor=none;endArrow=block;endFill=1;rounded=0;exitX=1;exitY=0.5;exitDx=0;exitDy=0;entryX=-0.008;entryY=0.322;entryDx=0;entryDy=0;entryPerimeter=0;fontFamily=Calibri;" parent="DuBXzEyR3vmLx20q9r14-2" edge="1">
          <mxGeometry width="160" relative="1" as="geometry">
            <mxPoint x="160" y="413" as="sourcePoint" />
            <mxPoint x="659.1199999999999" y="412.4" as="targetPoint" />
          </mxGeometry>
        </mxCell>
        <mxCell id="DuBXzEyR3vmLx20q9r14-22" value="vidXlmRegister(tstrXlmRegisterArgs* pstrArgs)" style="edgeLabel;html=1;align=center;verticalAlign=middle;resizable=0;points=[];fontFamily=Calibri;" parent="DuBXzEyR3vmLx20q9r14-21" vertex="1" connectable="0">
          <mxGeometry x="-0.1605" y="-1" relative="1" as="geometry">
            <mxPoint x="-59" as="offset" />
          </mxGeometry>
        </mxCell>
        <mxCell id="DuBXzEyR3vmLx20q9r14-23" value="" style="html=1;verticalAlign=bottom;labelBackgroundColor=none;endArrow=block;endFill=1;rounded=0;exitX=1.005;exitY=0.304;exitDx=0;exitDy=0;entryX=0;entryY=0;entryDx=0;entryDy=140;entryPerimeter=0;exitPerimeter=0;fontFamily=Calibri;" parent="DuBXzEyR3vmLx20q9r14-2" edge="1">
          <mxGeometry width="160" relative="1" as="geometry">
            <mxPoint x="160.54999999999973" y="487.52" as="sourcePoint" />
            <mxPoint x="660" y="488" as="targetPoint" />
          </mxGeometry>
        </mxCell>
        <mxCell id="DuBXzEyR3vmLx20q9r14-24" value="vidXlmProcess(tenuXlmEvent enuEvent)" style="edgeLabel;html=1;align=center;verticalAlign=middle;resizable=0;points=[];fontFamily=Calibri;" parent="DuBXzEyR3vmLx20q9r14-23" vertex="1" connectable="0">
          <mxGeometry x="-0.1605" y="-1" relative="1" as="geometry">
            <mxPoint x="-71" as="offset" />
          </mxGeometry>
        </mxCell>
        <mxCell id="DuBXzEyR3vmLx20q9r14-25" value="" style="html=1;verticalAlign=bottom;labelBackgroundColor=none;endArrow=block;endFill=1;rounded=0;exitX=-0.011;exitY=0.902;exitDx=0;exitDy=0;entryX=0.994;entryY=0.613;entryDx=0;entryDy=0;entryPerimeter=0;exitPerimeter=0;dashed=1;fontFamily=Calibri;" parent="DuBXzEyR3vmLx20q9r14-2" source="DuBXzEyR3vmLx20q9r14-20" target="DuBXzEyR3vmLx20q9r14-19" edge="1">
          <mxGeometry width="160" relative="1" as="geometry">
            <mxPoint x="171" y="490" as="sourcePoint" />
            <mxPoint x="500" y="490" as="targetPoint" />
          </mxGeometry>
        </mxCell>
        <mxCell id="DuBXzEyR3vmLx20q9r14-26" value="vidXlmNotifyCallback(tenuXlmNotify enuType, tstrXlmNotifyArgs* pArgs)" style="edgeLabel;html=1;align=center;verticalAlign=middle;resizable=0;points=[];fontFamily=Calibri;" parent="DuBXzEyR3vmLx20q9r14-25" vertex="1" connectable="0">
          <mxGeometry x="-0.1605" y="-1" relative="1" as="geometry">
            <mxPoint x="11" as="offset" />
          </mxGeometry>
        </mxCell>
        <mxCell id="DuBXzEyR3vmLx20q9r14-41" value="" style="html=1;verticalAlign=bottom;labelBackgroundColor=none;endArrow=block;endFill=1;rounded=0;exitX=0.985;exitY=0.923;exitDx=0;exitDy=0;exitPerimeter=0;dashed=1;entryX=-0.004;entryY=0.732;entryDx=0;entryDy=0;entryPerimeter=0;fontFamily=Calibri;" parent="DuBXzEyR3vmLx20q9r14-2" target="DuBXzEyR3vmLx20q9r14-35" edge="1">
          <mxGeometry width="160" relative="1" as="geometry">
            <mxPoint x="159.22000000000003" y="560" as="sourcePoint" />
            <mxPoint x="985.22" y="560" as="targetPoint" />
          </mxGeometry>
        </mxCell>
        <mxCell id="DuBXzEyR3vmLx20q9r14-42" value="xQueueSendToBack" style="edgeLabel;html=1;align=center;verticalAlign=middle;resizable=0;points=[];fontFamily=Calibri;" parent="DuBXzEyR3vmLx20q9r14-41" vertex="1" connectable="0">
          <mxGeometry x="-0.1605" y="-1" relative="1" as="geometry">
            <mxPoint x="-71" as="offset" />
          </mxGeometry>
        </mxCell>
        <mxCell id="DuBXzEyR3vmLx20q9r14-6" value="" style="html=1;verticalAlign=bottom;labelBackgroundColor=none;endArrow=block;endFill=1;rounded=0;exitX=-0.003;exitY=0.18;exitDx=0;exitDy=0;entryX=1.035;entryY=0.286;entryDx=0;entryDy=0;entryPerimeter=0;exitPerimeter=0;fontFamily=Calibri;" parent="1" source="DuBXzEyR3vmLx20q9r14-5" edge="1">
          <mxGeometry width="160" relative="1" as="geometry">
            <mxPoint x="342.9800000000001" y="385.22" as="sourcePoint" />
            <mxPoint x="119.99999999999996" y="383.03999999999996" as="targetPoint" />
          </mxGeometry>
        </mxCell>
        <mxCell id="DuBXzEyR3vmLx20q9r14-7" value="HAL_GPIO_ReadPin" style="edgeLabel;html=1;align=center;verticalAlign=middle;resizable=0;points=[];fontFamily=Calibri;" parent="DuBXzEyR3vmLx20q9r14-6" vertex="1" connectable="0">
          <mxGeometry x="-0.1605" y="-1" relative="1" as="geometry">
            <mxPoint x="11" as="offset" />
          </mxGeometry>
        </mxCell>
        <mxCell id="DuBXzEyR3vmLx20q9r14-27" value="" style="html=1;verticalAlign=bottom;labelBackgroundColor=none;endArrow=block;endFill=1;rounded=0;exitX=0;exitY=0.5;exitDx=0;exitDy=0;fontFamily=Calibri;" parent="1" source="DuBXzEyR3vmLx20q9r14-18" edge="1">
          <mxGeometry width="160" relative="1" as="geometry">
            <mxPoint x="321" y="395" as="sourcePoint" />
            <mxPoint x="120" y="604" as="targetPoint" />
          </mxGeometry>
        </mxCell>
        <mxCell id="DuBXzEyR3vmLx20q9r14-28" value="HAL_TIM_PWM_Start" style="edgeLabel;html=1;align=center;verticalAlign=middle;resizable=0;points=[];fontFamily=Calibri;" parent="DuBXzEyR3vmLx20q9r14-27" vertex="1" connectable="0">
          <mxGeometry x="-0.1605" y="-1" relative="1" as="geometry">
            <mxPoint x="11" as="offset" />
          </mxGeometry>
        </mxCell>
        <mxCell id="DuBXzEyR3vmLx20q9r14-29" value="" style="html=1;verticalAlign=bottom;labelBackgroundColor=none;endArrow=block;endFill=1;rounded=0;exitX=0;exitY=0.194;exitDx=0;exitDy=0;entryX=1.005;entryY=0.271;entryDx=0;entryDy=0;entryPerimeter=0;exitPerimeter=0;fontFamily=Calibri;" parent="1" edge="1">
          <mxGeometry width="160" relative="1" as="geometry">
            <mxPoint x="311" y="660" as="sourcePoint" />
            <mxPoint x="120" y="662" as="targetPoint" />
          </mxGeometry>
        </mxCell>
        <mxCell id="DuBXzEyR3vmLx20q9r14-30" value="HAL_GPIO_ReadPin" style="edgeLabel;html=1;align=center;verticalAlign=middle;resizable=0;points=[];fontFamily=Calibri;" parent="DuBXzEyR3vmLx20q9r14-29" vertex="1" connectable="0">
          <mxGeometry x="-0.1605" y="-1" relative="1" as="geometry">
            <mxPoint x="46" as="offset" />
          </mxGeometry>
        </mxCell>
        <mxCell id="DuBXzEyR3vmLx20q9r14-31" value="" style="html=1;verticalAlign=bottom;labelBackgroundColor=none;endArrow=block;endFill=1;rounded=0;exitX=0;exitY=0.194;exitDx=0;exitDy=0;entryX=1.005;entryY=0.271;entryDx=0;entryDy=0;entryPerimeter=0;exitPerimeter=0;fontFamily=Calibri;" parent="1" edge="1">
          <mxGeometry width="160" relative="1" as="geometry">
            <mxPoint x="311" y="743" as="sourcePoint" />
            <mxPoint x="120" y="745" as="targetPoint" />
          </mxGeometry>
        </mxCell>
        <mxCell id="DuBXzEyR3vmLx20q9r14-32" value="__HAL_TIM_SET_COMPARE" style="edgeLabel;html=1;align=center;verticalAlign=middle;resizable=0;points=[];fontFamily=Calibri;" parent="DuBXzEyR3vmLx20q9r14-31" vertex="1" connectable="0">
          <mxGeometry x="-0.1605" y="-1" relative="1" as="geometry">
            <mxPoint x="19" y="2" as="offset" />
          </mxGeometry>
        </mxCell>
        <mxCell id="DuBXzEyR3vmLx20q9r14-33" value="Tasks" style="shape=umlFrame;whiteSpace=wrap;html=1;pointerEvents=0;recursiveResize=0;container=1;collapsible=0;width=50;height=30;fontFamily=Calibri;fontStyle=5" parent="1" vertex="1">
          <mxGeometry x="1173" y="200" width="280" height="640" as="geometry" />
        </mxCell>
        <mxCell id="DuBXzEyR3vmLx20q9r14-34" value="TOB" style="shape=folder;fontStyle=5;tabWidth=69;tabHeight=30;tabPosition=left;html=1;boundedLbl=1;labelInHeader=1;container=1;collapsible=0;recursiveResize=0;whiteSpace=wrap;verticalAlign=top;align=center;fontFamily=Calibri;" parent="DuBXzEyR3vmLx20q9r14-33" vertex="1">
          <mxGeometry x="40" y="210" width="200" height="100" as="geometry" />
        </mxCell>
        <mxCell id="DuBXzEyR3vmLx20q9r14-35" value="TOL" style="shape=folder;fontStyle=5;tabWidth=69;tabHeight=30;tabPosition=left;html=1;boundedLbl=1;labelInHeader=1;container=1;collapsible=0;recursiveResize=0;whiteSpace=wrap;verticalAlign=top;align=center;fontFamily=Calibri;" parent="DuBXzEyR3vmLx20q9r14-33" vertex="1">
          <mxGeometry x="40" y="487" width="200" height="100" as="geometry" />
        </mxCell>
        <mxCell id="DuBXzEyR3vmLx20q9r14-43" value="TOS" style="shape=folder;fontStyle=5;tabWidth=69;tabHeight=30;tabPosition=left;html=1;boundedLbl=1;labelInHeader=1;container=1;collapsible=0;recursiveResize=0;whiteSpace=wrap;verticalAlign=top;align=center;fontFamily=Calibri;" parent="DuBXzEyR3vmLx20q9r14-33" vertex="1">
          <mxGeometry x="40" y="350" width="200" height="100" as="geometry" />
        </mxCell>
        <mxCell id="DuBXzEyR3vmLx20q9r14-44" value="" style="html=1;verticalAlign=bottom;labelBackgroundColor=none;endArrow=block;endFill=1;rounded=0;dashed=1;entryX=0.5;entryY=1;entryDx=0;entryDy=0;entryPerimeter=0;exitX=0.535;exitY=0.299;exitDx=0;exitDy=0;exitPerimeter=0;fontFamily=Calibri;" parent="DuBXzEyR3vmLx20q9r14-43" source="DuBXzEyR3vmLx20q9r14-35" edge="1">
          <mxGeometry width="160" relative="1" as="geometry">
            <mxPoint x="107" y="160" as="sourcePoint" />
            <mxPoint x="107" y="100" as="targetPoint" />
          </mxGeometry>
        </mxCell>
        <mxCell id="DuBXzEyR3vmLx20q9r14-45" value="xQueueSendToBack" style="edgeLabel;html=1;align=center;verticalAlign=middle;resizable=0;points=[];fontFamily=Calibri;" parent="DuBXzEyR3vmLx20q9r14-44" vertex="1" connectable="0">
          <mxGeometry x="-0.1605" y="-1" relative="1" as="geometry">
            <mxPoint x="59" y="-2" as="offset" />
          </mxGeometry>
        </mxCell>
        <mxCell id="DuBXzEyR3vmLx20q9r14-46" value="" style="html=1;verticalAlign=bottom;labelBackgroundColor=none;endArrow=block;endFill=1;rounded=0;dashed=1;exitX=0.535;exitY=1.02;exitDx=0;exitDy=0;exitPerimeter=0;fontFamily=Calibri;" parent="DuBXzEyR3vmLx20q9r14-33" source="DuBXzEyR3vmLx20q9r14-34" edge="1">
          <mxGeometry width="160" relative="1" as="geometry">
            <mxPoint x="157" y="527" as="sourcePoint" />
            <mxPoint x="147" y="380" as="targetPoint" />
          </mxGeometry>
        </mxCell>
        <mxCell id="DuBXzEyR3vmLx20q9r14-47" value="xQueueSendToBack" style="edgeLabel;html=1;align=center;verticalAlign=middle;resizable=0;points=[];fontFamily=Calibri;" parent="DuBXzEyR3vmLx20q9r14-46" vertex="1" connectable="0">
          <mxGeometry x="-0.1605" y="-1" relative="1" as="geometry">
            <mxPoint x="59" y="-2" as="offset" />
          </mxGeometry>
        </mxCell>
        <mxCell id="DuBXzEyR3vmLx20q9r14-36" value="" style="html=1;verticalAlign=bottom;labelBackgroundColor=none;endArrow=block;endFill=1;rounded=0;exitX=0.985;exitY=0.923;exitDx=0;exitDy=0;exitPerimeter=0;dashed=1;entryX=-0.002;entryY=0.696;entryDx=0;entryDy=0;entryPerimeter=0;fontFamily=Calibri;" parent="1" target="DuBXzEyR3vmLx20q9r14-34" edge="1">
          <mxGeometry width="160" relative="1" as="geometry">
            <mxPoint x="455.1299999999999" y="479.99" as="sourcePoint" />
            <mxPoint x="1210" y="480" as="targetPoint" />
          </mxGeometry>
        </mxCell>
        <mxCell id="DuBXzEyR3vmLx20q9r14-37" value="xQueueSendToBack" style="edgeLabel;html=1;align=center;verticalAlign=middle;resizable=0;points=[];fontFamily=Calibri;" parent="DuBXzEyR3vmLx20q9r14-36" vertex="1" connectable="0">
          <mxGeometry x="-0.1605" y="-1" relative="1" as="geometry">
            <mxPoint x="-71" as="offset" />
          </mxGeometry>
        </mxCell>
        <mxCell id="gonP3rIY_VH19TJXN9tX-1" value="&lt;h1 style=&quot;margin-top: 0px;&quot;&gt;ALM Package Diagram&lt;/h1&gt;&lt;p&gt;&lt;br&gt;&lt;/p&gt;&lt;p&gt;&lt;br&gt;&lt;/p&gt;" style="text;html=1;whiteSpace=wrap;overflow=hidden;rounded=0;fontFamily=Calibri;" parent="1" vertex="1">
          <mxGeometry x="40" y="40" width="420" height="50" as="geometry" />
        </mxCell>
        <mxCell id="gonP3rIY_VH19TJXN9tX-2" value="&lt;span style=&quot;font-size: 15px;&quot;&gt;HAL : Hardware Abstraction Layer&lt;/span&gt;&lt;div style=&quot;font-size: 15px;&quot;&gt;&lt;span style=&quot;font-size: 15px;&quot;&gt;ISB : Interrupt Service for Button&lt;/span&gt;&lt;/div&gt;&lt;div style=&quot;font-size: 15px;&quot;&gt;&lt;div style=&quot;font-size: 15px;&quot;&gt;&lt;span style=&quot;font-size: 15px;&quot;&gt;ISL : Interrupt Service for LED&lt;/span&gt;&lt;/div&gt;&lt;div style=&quot;font-size: 15px;&quot;&gt;&lt;span style=&quot;font-size: 15px;&quot;&gt;XBM : X? Button Manager (State Machine)&lt;/span&gt;&lt;/div&gt;&lt;div style=&quot;font-size: 15px;&quot;&gt;&lt;span style=&quot;font-size: 15px;&quot;&gt;XLM : X? LED Manager&amp;nbsp;&lt;/span&gt;(State Machine)&lt;/div&gt;&lt;/div&gt;&lt;div style=&quot;font-size: 15px;&quot;&gt;&lt;span style=&quot;font-size: 15px;&quot;&gt;&lt;br style=&quot;font-size: 15px;&quot;&gt;&lt;/span&gt;&lt;/div&gt;" style="text;html=1;align=left;verticalAlign=top;whiteSpace=wrap;rounded=0;fontFamily=Calibri;labelBackgroundColor=default;fontSize=15;" parent="1" vertex="1">
          <mxGeometry x="40" y="80" width="260" height="110" as="geometry" />
        </mxCell>
        <mxCell id="gonP3rIY_VH19TJXN9tX-3" value="&lt;div style=&quot;font-size: 15px;&quot;&gt;&lt;span style=&quot;font-size: 15px;&quot;&gt;TOB : Task Of Button&lt;/span&gt;&lt;/div&gt;&lt;div style=&quot;font-size: 15px;&quot;&gt;TOL : Task of LED&lt;br&gt;&lt;/div&gt;&lt;div style=&quot;font-size: 15px;&quot;&gt;&lt;div&gt;TOS : Task of SWD (Serial Wire Debug)&lt;/div&gt;&lt;/div&gt;" style="text;html=1;align=left;verticalAlign=top;whiteSpace=wrap;rounded=0;fontFamily=Calibri;labelBackgroundColor=default;fontSize=15;" parent="1" vertex="1">
          <mxGeometry x="320" y="80" width="260" height="70" as="geometry" />
        </mxCell>
      </root>
    </mxGraphModel>
  </diagram>
  <diagram id="hmQxSV6O1ys4wega4-m0" name="SequenceDiagram">
    <mxGraphModel dx="1434" dy="844" grid="1" gridSize="10" guides="1" tooltips="1" connect="1" arrows="1" fold="1" page="1" pageScale="1" pageWidth="1654" pageHeight="1169" math="0" shadow="0">
      <root>
        <mxCell id="0" />
        <mxCell id="1" parent="0" />
        <mxCell id="Shw-agXYc_y_KMMv-yzz-1" value="ISB" style="shape=umlLifeline;perimeter=lifelinePerimeter;whiteSpace=wrap;html=1;container=1;collapsible=0;recursiveResize=0;outlineConnect=0;rounded=1;shadow=0;comic=0;labelBackgroundColor=none;strokeWidth=1;fontFamily=Calibri;fontSize=12;align=center;fontStyle=5" parent="1" vertex="1">
          <mxGeometry x="180" y="200" width="100" height="580" as="geometry" />
        </mxCell>
        <mxCell id="Shw-agXYc_y_KMMv-yzz-3" value="ISL" style="shape=umlLifeline;perimeter=lifelinePerimeter;whiteSpace=wrap;html=1;container=1;collapsible=0;recursiveResize=0;outlineConnect=0;rounded=1;shadow=0;comic=0;labelBackgroundColor=none;strokeWidth=1;fontFamily=Calibri;fontSize=12;align=center;fontStyle=5" parent="1" vertex="1">
          <mxGeometry x="340" y="200" width="100" height="580" as="geometry" />
        </mxCell>
        <mxCell id="exlaqO4NeFZIxYTNJqVL-1" value="" style="html=1;verticalAlign=bottom;labelBackgroundColor=none;endArrow=block;endFill=1;rounded=0;exitX=0.985;exitY=0.923;exitDx=0;exitDy=0;exitPerimeter=0;dashed=1;fontFamily=Calibri;" parent="Shw-agXYc_y_KMMv-yzz-3" target="Shw-agXYc_y_KMMv-yzz-7" edge="1">
          <mxGeometry width="160" relative="1" as="geometry">
            <mxPoint x="-105.00000000000011" y="340" as="sourcePoint" />
            <mxPoint x="652.87" y="340.01" as="targetPoint" />
          </mxGeometry>
        </mxCell>
        <mxCell id="exlaqO4NeFZIxYTNJqVL-2" value="xQueueSendToBack" style="edgeLabel;html=1;align=center;verticalAlign=middle;resizable=0;points=[];fontFamily=Calibri;" parent="exlaqO4NeFZIxYTNJqVL-1" vertex="1" connectable="0">
          <mxGeometry x="-0.1605" y="-1" relative="1" as="geometry">
            <mxPoint x="-186" y="9" as="offset" />
          </mxGeometry>
        </mxCell>
        <mxCell id="exlaqO4NeFZIxYTNJqVL-3" value="" style="html=1;points=[[0,0,0,0,5],[0,1,0,0,-5],[1,0,0,0,5],[1,1,0,0,-5]];perimeter=orthogonalPerimeter;outlineConnect=0;targetShapes=umlLifeline;portConstraint=eastwest;newEdgeStyle={&quot;curved&quot;:0,&quot;rounded&quot;:0};fontFamily=Calibri;" parent="Shw-agXYc_y_KMMv-yzz-3" vertex="1">
          <mxGeometry x="45" y="370" width="10" height="150" as="geometry" />
        </mxCell>
        <mxCell id="Shw-agXYc_y_KMMv-yzz-5" value="XBM" style="shape=umlLifeline;perimeter=lifelinePerimeter;whiteSpace=wrap;html=1;container=1;collapsible=0;recursiveResize=0;outlineConnect=0;rounded=1;shadow=0;comic=0;labelBackgroundColor=none;strokeWidth=1;fontFamily=Calibri;fontSize=12;align=center;fontStyle=5" parent="1" vertex="1">
          <mxGeometry x="480" y="200" width="100" height="580" as="geometry" />
        </mxCell>
        <mxCell id="yTEsguZcnPH_H5hIy5N2-1" value="" style="html=1;verticalAlign=bottom;labelBackgroundColor=none;endArrow=block;endFill=1;rounded=0;fontFamily=Calibri;" parent="Shw-agXYc_y_KMMv-yzz-5" target="yTEsguZcnPH_H5hIy5N2-22" edge="1">
          <mxGeometry width="160" relative="1" as="geometry">
            <mxPoint x="-89.94999999999999" y="150" as="sourcePoint" />
            <mxPoint x="185" y="150" as="targetPoint" />
          </mxGeometry>
        </mxCell>
        <mxCell id="yTEsguZcnPH_H5hIy5N2-2" value="vidXlmRegister(tstrXlmRegisterArgs* pstrArgs)" style="edgeLabel;html=1;align=center;verticalAlign=middle;resizable=0;points=[];fontFamily=Calibri;" parent="yTEsguZcnPH_H5hIy5N2-1" vertex="1" connectable="0">
          <mxGeometry x="-0.1605" y="-1" relative="1" as="geometry">
            <mxPoint x="-3" y="9" as="offset" />
          </mxGeometry>
        </mxCell>
        <mxCell id="Ags9-rbwhvTClrwKzRWO-3" value="" style="html=1;points=[[0,0,0,0,5],[0,1,0,0,-5],[1,0,0,0,5],[1,1,0,0,-5]];perimeter=orthogonalPerimeter;outlineConnect=0;targetShapes=umlLifeline;portConstraint=eastwest;newEdgeStyle={&quot;curved&quot;:0,&quot;rounded&quot;:0};fontFamily=Calibri;" parent="Shw-agXYc_y_KMMv-yzz-5" vertex="1">
          <mxGeometry x="45" y="265" width="10" height="35" as="geometry" />
        </mxCell>
        <mxCell id="Shw-agXYc_y_KMMv-yzz-6" value="XLM" style="shape=umlLifeline;perimeter=lifelinePerimeter;whiteSpace=wrap;html=1;container=1;collapsible=0;recursiveResize=0;outlineConnect=0;rounded=1;shadow=0;comic=0;labelBackgroundColor=none;strokeWidth=1;fontFamily=Calibri;fontSize=12;align=center;fontStyle=5" parent="1" vertex="1">
          <mxGeometry x="620" y="200" width="100" height="580" as="geometry" />
        </mxCell>
        <mxCell id="-VrO_dmVif6u81C9c0Am-5" value="" style="html=1;points=[[0,0,0,0,5],[0,1,0,0,-5],[1,0,0,0,5],[1,1,0,0,-5]];perimeter=orthogonalPerimeter;outlineConnect=0;targetShapes=umlLifeline;portConstraint=eastwest;newEdgeStyle={&quot;curved&quot;:0,&quot;rounded&quot;:0};fontFamily=Calibri;" parent="Shw-agXYc_y_KMMv-yzz-6" vertex="1">
          <mxGeometry x="45" y="440" width="10" height="35" as="geometry" />
        </mxCell>
        <mxCell id="Shw-agXYc_y_KMMv-yzz-7" value="TOB" style="shape=umlLifeline;perimeter=lifelinePerimeter;whiteSpace=wrap;html=1;container=1;collapsible=0;recursiveResize=0;outlineConnect=0;rounded=1;shadow=0;comic=0;labelBackgroundColor=none;strokeWidth=1;fontFamily=Calibri;fontSize=12;align=center;fontStyle=5" parent="1" vertex="1">
          <mxGeometry x="760" y="200" width="100" height="580" as="geometry" />
        </mxCell>
        <mxCell id="9C-UTcRPpzyKJZOCW3uc-5" value="" style="html=1;points=[[0,0,0,0,5],[0,1,0,0,-5],[1,0,0,0,5],[1,1,0,0,-5]];perimeter=orthogonalPerimeter;outlineConnect=0;targetShapes=umlLifeline;portConstraint=eastwest;newEdgeStyle={&quot;curved&quot;:0,&quot;rounded&quot;:0};fontFamily=Calibri;" parent="Shw-agXYc_y_KMMv-yzz-7" vertex="1">
          <mxGeometry x="45" y="340" width="10" height="30" as="geometry" />
        </mxCell>
        <mxCell id="Shw-agXYc_y_KMMv-yzz-8" value="TOL" style="shape=umlLifeline;perimeter=lifelinePerimeter;whiteSpace=wrap;html=1;container=1;collapsible=0;recursiveResize=0;outlineConnect=0;rounded=1;shadow=0;comic=0;labelBackgroundColor=none;strokeWidth=1;fontFamily=Calibri;fontSize=12;align=center;fontStyle=5" parent="1" vertex="1">
          <mxGeometry x="900" y="200" width="100" height="580" as="geometry" />
        </mxCell>
        <mxCell id="Shw-agXYc_y_KMMv-yzz-9" value="HAL" style="shape=umlLifeline;perimeter=lifelinePerimeter;whiteSpace=wrap;html=1;container=1;collapsible=0;recursiveResize=0;outlineConnect=0;rounded=1;shadow=0;comic=0;labelBackgroundColor=none;strokeWidth=1;fontFamily=Calibri;fontSize=12;align=center;fontStyle=5" parent="1" vertex="1">
          <mxGeometry x="40" y="200" width="100" height="580" as="geometry" />
        </mxCell>
        <mxCell id="uG0XgLL_0JFcI8AbS3GI-1" value="" style="html=1;verticalAlign=bottom;labelBackgroundColor=none;endArrow=block;endFill=1;rounded=0;exitX=-0.25;exitY=0.259;exitDx=0;exitDy=0;exitPerimeter=0;fontFamily=Calibri;" parent="Shw-agXYc_y_KMMv-yzz-9" edge="1">
          <mxGeometry width="160" relative="1" as="geometry">
            <mxPoint x="185" y="239.99999999999994" as="sourcePoint" />
            <mxPoint x="52.16666666666674" y="239.99999999999994" as="targetPoint" />
          </mxGeometry>
        </mxCell>
        <mxCell id="uG0XgLL_0JFcI8AbS3GI-2" value="HAL_GPIO_ReadPin" style="edgeLabel;html=1;align=center;verticalAlign=middle;resizable=0;points=[];fontFamily=Calibri;" parent="uG0XgLL_0JFcI8AbS3GI-1" vertex="1" connectable="0">
          <mxGeometry x="-0.1605" y="-1" relative="1" as="geometry">
            <mxPoint x="11" as="offset" />
          </mxGeometry>
        </mxCell>
        <mxCell id="Shw-agXYc_y_KMMv-yzz-38" value="TOS" style="shape=umlLifeline;perimeter=lifelinePerimeter;whiteSpace=wrap;html=1;container=1;collapsible=0;recursiveResize=0;outlineConnect=0;rounded=1;shadow=0;comic=0;labelBackgroundColor=none;strokeWidth=1;fontFamily=Calibri;fontSize=12;align=center;fontStyle=5" parent="1" vertex="1">
          <mxGeometry x="1040" y="200" width="100" height="580" as="geometry" />
        </mxCell>
        <mxCell id="9C-UTcRPpzyKJZOCW3uc-9" value="" style="html=1;verticalAlign=bottom;labelBackgroundColor=none;endArrow=block;endFill=1;rounded=0;dashed=1;fontFamily=Calibri;" parent="Shw-agXYc_y_KMMv-yzz-38" source="Shw-agXYc_y_KMMv-yzz-8" edge="1">
          <mxGeometry width="160" relative="1" as="geometry">
            <mxPoint x="-60" y="520" as="sourcePoint" />
            <mxPoint x="51.5" y="520" as="targetPoint" />
          </mxGeometry>
        </mxCell>
        <mxCell id="9C-UTcRPpzyKJZOCW3uc-10" value="xQueueSendToBack" style="edgeLabel;html=1;align=center;verticalAlign=middle;resizable=0;points=[];fontFamily=Calibri;" parent="9C-UTcRPpzyKJZOCW3uc-9" vertex="1" connectable="0">
          <mxGeometry x="-0.1605" y="-1" relative="1" as="geometry">
            <mxPoint x="1" y="7" as="offset" />
          </mxGeometry>
        </mxCell>
        <mxCell id="r4VSVXNMNF1-bbyohXld-4" value="&lt;h1 style=&quot;margin-top: 0px;&quot;&gt;ALM Sequence Diagram&lt;/h1&gt;&lt;p&gt;&lt;br&gt;&lt;/p&gt;&lt;p&gt;&lt;br&gt;&lt;/p&gt;" style="text;html=1;whiteSpace=wrap;overflow=hidden;rounded=0;fontFamily=Calibri;" parent="1" vertex="1">
          <mxGeometry x="40" y="40" width="420" height="50" as="geometry" />
        </mxCell>
        <mxCell id="yTEsguZcnPH_H5hIy5N2-9" value="" style="html=1;points=[[0,0,0,0,5],[0,1,0,0,-5],[1,0,0,0,5],[1,1,0,0,-5]];perimeter=orthogonalPerimeter;outlineConnect=0;targetShapes=umlLifeline;portConstraint=eastwest;newEdgeStyle={&quot;curved&quot;:0,&quot;rounded&quot;:0};fontFamily=Calibri;" parent="1" vertex="1">
          <mxGeometry x="385" y="344" width="10" height="40" as="geometry" />
        </mxCell>
        <mxCell id="yTEsguZcnPH_H5hIy5N2-14" value="" style="html=1;verticalAlign=bottom;labelBackgroundColor=none;endArrow=block;endFill=1;rounded=0;fontFamily=Calibri;entryX=1;entryY=1;entryDx=0;entryDy=-5;entryPerimeter=0;" parent="1" edge="1">
          <mxGeometry width="160" relative="1" as="geometry">
            <mxPoint x="529.5" y="311" as="sourcePoint" />
            <mxPoint x="235" y="311" as="targetPoint" />
            <Array as="points">
              <mxPoint x="470" y="311" />
            </Array>
          </mxGeometry>
        </mxCell>
        <mxCell id="yTEsguZcnPH_H5hIy5N2-16" value="" style="html=1;points=[[0,0,0,0,5],[0,1,0,0,-5],[1,0,0,0,5],[1,1,0,0,-5]];perimeter=orthogonalPerimeter;outlineConnect=0;targetShapes=umlLifeline;portConstraint=eastwest;newEdgeStyle={&quot;curved&quot;:0,&quot;rounded&quot;:0};fontFamily=Calibri;" parent="1" vertex="1">
          <mxGeometry x="525" y="280" width="10" height="40" as="geometry" />
        </mxCell>
        <mxCell id="yTEsguZcnPH_H5hIy5N2-17" value="" style="html=1;verticalAlign=bottom;labelBackgroundColor=none;endArrow=block;endFill=1;rounded=0;fontFamily=Calibri;" parent="1" target="yTEsguZcnPH_H5hIy5N2-16" edge="1">
          <mxGeometry width="160" relative="1" as="geometry">
            <mxPoint x="230" y="280" as="sourcePoint" />
            <mxPoint x="520" y="280" as="targetPoint" />
            <Array as="points">
              <mxPoint x="460" y="280" />
            </Array>
          </mxGeometry>
        </mxCell>
        <mxCell id="yTEsguZcnPH_H5hIy5N2-18" value="vidXbmRegister(tstrXbmRegisterArgs* pstrArgs)" style="edgeLabel;html=1;align=center;verticalAlign=middle;resizable=0;points=[];fontFamily=Calibri;" parent="yTEsguZcnPH_H5hIy5N2-17" vertex="1" connectable="0">
          <mxGeometry x="-0.1605" y="-1" relative="1" as="geometry">
            <mxPoint x="-5" y="9" as="offset" />
          </mxGeometry>
        </mxCell>
        <mxCell id="yTEsguZcnPH_H5hIy5N2-19" value="" style="html=1;points=[[0,0,0,0,5],[0,1,0,0,-5],[1,0,0,0,5],[1,1,0,0,-5]];perimeter=orthogonalPerimeter;outlineConnect=0;targetShapes=umlLifeline;portConstraint=eastwest;newEdgeStyle={&quot;curved&quot;:0,&quot;rounded&quot;:0};fontFamily=Calibri;" parent="1" vertex="1">
          <mxGeometry x="225" y="274" width="10" height="46" as="geometry" />
        </mxCell>
        <mxCell id="yTEsguZcnPH_H5hIy5N2-22" value="" style="html=1;points=[[0,0,0,0,5],[0,1,0,0,-5],[1,0,0,0,5],[1,1,0,0,-5]];perimeter=orthogonalPerimeter;outlineConnect=0;targetShapes=umlLifeline;portConstraint=eastwest;newEdgeStyle={&quot;curved&quot;:0,&quot;rounded&quot;:0};fontFamily=Calibri;" parent="1" vertex="1">
          <mxGeometry x="665" y="350" width="10" height="40" as="geometry" />
        </mxCell>
        <mxCell id="Ags9-rbwhvTClrwKzRWO-1" value="" style="html=1;verticalAlign=bottom;labelBackgroundColor=none;endArrow=block;endFill=1;rounded=0;fontFamily=Calibri;" parent="1" edge="1">
          <mxGeometry width="160" relative="1" as="geometry">
            <mxPoint x="229.66666666666674" y="465" as="sourcePoint" />
            <mxPoint x="529.5000000000002" y="465" as="targetPoint" />
          </mxGeometry>
        </mxCell>
        <mxCell id="Ags9-rbwhvTClrwKzRWO-2" value="vidXbmProcess(tenuXbmEvent enuEvent)" style="edgeLabel;html=1;align=center;verticalAlign=middle;resizable=0;points=[];fontFamily=Calibri;" parent="Ags9-rbwhvTClrwKzRWO-1" vertex="1" connectable="0">
          <mxGeometry x="-0.1605" y="-1" relative="1" as="geometry">
            <mxPoint x="-15" y="9" as="offset" />
          </mxGeometry>
        </mxCell>
        <mxCell id="Ags9-rbwhvTClrwKzRWO-4" value="" style="html=1;points=[[0,0,0,0,5],[0,1,0,0,-5],[1,0,0,0,5],[1,1,0,0,-5]];perimeter=orthogonalPerimeter;outlineConnect=0;targetShapes=umlLifeline;portConstraint=eastwest;newEdgeStyle={&quot;curved&quot;:0,&quot;rounded&quot;:0};fontFamily=Calibri;" parent="1" vertex="1">
          <mxGeometry x="225" y="430" width="10" height="130" as="geometry" />
        </mxCell>
        <mxCell id="lXjMAHNZZll0vfd9k_KZ-1" value="" style="html=1;verticalAlign=bottom;labelBackgroundColor=none;endArrow=block;endFill=1;rounded=0;dashed=1;fontFamily=Calibri;" parent="1" edge="1">
          <mxGeometry width="160" relative="1" as="geometry">
            <mxPoint x="525" y="493.58" as="sourcePoint" />
            <mxPoint x="235" y="493.58" as="targetPoint" />
          </mxGeometry>
        </mxCell>
        <mxCell id="lXjMAHNZZll0vfd9k_KZ-2" value="vidXbmNotifyCallback(tenuXbmNotify enuType, tstrXbmNotifyArgs* pArgs)" style="edgeLabel;html=1;align=center;verticalAlign=middle;resizable=0;points=[];fontFamily=Calibri;" parent="lXjMAHNZZll0vfd9k_KZ-1" vertex="1" connectable="0">
          <mxGeometry x="-0.1605" y="-1" relative="1" as="geometry">
            <mxPoint x="7" y="17" as="offset" />
          </mxGeometry>
        </mxCell>
        <mxCell id="exlaqO4NeFZIxYTNJqVL-7" value="" style="html=1;verticalAlign=bottom;labelBackgroundColor=none;endArrow=block;endFill=1;rounded=0;fontFamily=Calibri;" parent="1" edge="1">
          <mxGeometry width="160" relative="1" as="geometry">
            <mxPoint x="225" y="620" as="sourcePoint" />
            <mxPoint x="385" y="620" as="targetPoint" />
            <Array as="points">
              <mxPoint x="295.5" y="620" />
            </Array>
          </mxGeometry>
        </mxCell>
        <mxCell id="exlaqO4NeFZIxYTNJqVL-11" value="" style="html=1;points=[[0,0,0,0,5],[0,1,0,0,-5],[1,0,0,0,5],[1,1,0,0,-5]];perimeter=orthogonalPerimeter;outlineConnect=0;targetShapes=umlLifeline;portConstraint=eastwest;newEdgeStyle={&quot;curved&quot;:0,&quot;rounded&quot;:0};fontFamily=Calibri;" parent="1" vertex="1">
          <mxGeometry x="225" y="584" width="10" height="46" as="geometry" />
        </mxCell>
        <mxCell id="exlaqO4NeFZIxYTNJqVL-12" value="" style="html=1;verticalAlign=bottom;labelBackgroundColor=none;endArrow=block;endFill=1;rounded=0;fontFamily=Calibri;" parent="1" edge="1">
          <mxGeometry width="160" relative="1" as="geometry">
            <mxPoint x="385" y="584" as="sourcePoint" />
            <mxPoint x="230" y="584" as="targetPoint" />
          </mxGeometry>
        </mxCell>
        <mxCell id="exlaqO4NeFZIxYTNJqVL-13" value="enuIsbGetEvent" style="edgeLabel;html=1;align=center;verticalAlign=middle;resizable=0;points=[];fontFamily=Calibri;" parent="exlaqO4NeFZIxYTNJqVL-12" vertex="1" connectable="0">
          <mxGeometry x="-0.1605" y="-1" relative="1" as="geometry">
            <mxPoint x="20" y="17" as="offset" />
          </mxGeometry>
        </mxCell>
        <mxCell id="-VrO_dmVif6u81C9c0Am-3" value="" style="html=1;verticalAlign=bottom;labelBackgroundColor=none;endArrow=block;endFill=1;rounded=0;fontFamily=Calibri;" parent="1" target="yTEsguZcnPH_H5hIy5N2-9" edge="1">
          <mxGeometry width="160" relative="1" as="geometry">
            <mxPoint x="665" y="378" as="sourcePoint" />
            <mxPoint x="390.02380952380963" y="378" as="targetPoint" />
          </mxGeometry>
        </mxCell>
        <mxCell id="-VrO_dmVif6u81C9c0Am-6" value="" style="html=1;verticalAlign=bottom;labelBackgroundColor=none;endArrow=block;endFill=1;rounded=0;fontFamily=Calibri;" parent="1" edge="1">
          <mxGeometry width="160" relative="1" as="geometry">
            <mxPoint x="395" y="640" as="sourcePoint" />
            <mxPoint x="670" y="640" as="targetPoint" />
          </mxGeometry>
        </mxCell>
        <mxCell id="-VrO_dmVif6u81C9c0Am-7" value="vidXlmProcess(tenuXlmEvent enuEvent)" style="edgeLabel;html=1;align=center;verticalAlign=middle;resizable=0;points=[];fontFamily=Calibri;" parent="-VrO_dmVif6u81C9c0Am-6" vertex="1" connectable="0">
          <mxGeometry x="-0.1605" y="-1" relative="1" as="geometry">
            <mxPoint x="-20" y="9" as="offset" />
          </mxGeometry>
        </mxCell>
        <mxCell id="9C-UTcRPpzyKJZOCW3uc-1" value="" style="html=1;verticalAlign=bottom;labelBackgroundColor=none;endArrow=block;endFill=1;rounded=0;dashed=1;fontFamily=Calibri;" parent="1" source="-VrO_dmVif6u81C9c0Am-5" edge="1">
          <mxGeometry width="160" relative="1" as="geometry">
            <mxPoint x="660" y="672" as="sourcePoint" />
            <mxPoint x="394.81034482758605" y="672" as="targetPoint" />
          </mxGeometry>
        </mxCell>
        <mxCell id="9C-UTcRPpzyKJZOCW3uc-2" value="vidXlmNotifyCallback(tenuXlmNotify enuType, tstrXlmNotifyArgs* pArgs)" style="edgeLabel;html=1;align=center;verticalAlign=middle;resizable=0;points=[];fontFamily=Calibri;" parent="9C-UTcRPpzyKJZOCW3uc-1" vertex="1" connectable="0">
          <mxGeometry x="-0.1605" y="-1" relative="1" as="geometry">
            <mxPoint x="11" y="11" as="offset" />
          </mxGeometry>
        </mxCell>
        <mxCell id="9C-UTcRPpzyKJZOCW3uc-7" value="" style="html=1;verticalAlign=bottom;labelBackgroundColor=none;endArrow=block;endFill=1;rounded=0;dashed=1;fontFamily=Calibri;" parent="1" source="9C-UTcRPpzyKJZOCW3uc-5" target="Shw-agXYc_y_KMMv-yzz-38" edge="1">
          <mxGeometry width="160" relative="1" as="geometry">
            <mxPoint x="244.9999999999999" y="550" as="sourcePoint" />
            <mxPoint x="820" y="550" as="targetPoint" />
          </mxGeometry>
        </mxCell>
        <mxCell id="9C-UTcRPpzyKJZOCW3uc-8" value="xQueueSendToBack" style="edgeLabel;html=1;align=center;verticalAlign=middle;resizable=0;points=[];fontFamily=Calibri;" parent="9C-UTcRPpzyKJZOCW3uc-7" vertex="1" connectable="0">
          <mxGeometry x="-0.1605" y="-1" relative="1" as="geometry">
            <mxPoint x="-60" y="12" as="offset" />
          </mxGeometry>
        </mxCell>
        <mxCell id="9C-UTcRPpzyKJZOCW3uc-11" value="" style="html=1;points=[[0,0,0,0,5],[0,1,0,0,-5],[1,0,0,0,5],[1,1,0,0,-5]];perimeter=orthogonalPerimeter;outlineConnect=0;targetShapes=umlLifeline;portConstraint=eastwest;newEdgeStyle={&quot;curved&quot;:0,&quot;rounded&quot;:0};fontFamily=Calibri;" parent="1" vertex="1">
          <mxGeometry x="945" y="710" width="10" height="30" as="geometry" />
        </mxCell>
        <mxCell id="9C-UTcRPpzyKJZOCW3uc-12" value="" style="html=1;verticalAlign=bottom;labelBackgroundColor=none;endArrow=block;endFill=1;rounded=0;exitX=0.985;exitY=0.923;exitDx=0;exitDy=0;exitPerimeter=0;dashed=1;fontFamily=Calibri;" parent="1" edge="1">
          <mxGeometry width="160" relative="1" as="geometry">
            <mxPoint x="394.9999999999999" y="710" as="sourcePoint" />
            <mxPoint x="950" y="710" as="targetPoint" />
          </mxGeometry>
        </mxCell>
        <mxCell id="9C-UTcRPpzyKJZOCW3uc-13" value="xQueueSendToBack" style="edgeLabel;html=1;align=center;verticalAlign=middle;resizable=0;points=[];fontFamily=Calibri;" parent="9C-UTcRPpzyKJZOCW3uc-12" vertex="1" connectable="0">
          <mxGeometry x="-0.1605" y="-1" relative="1" as="geometry">
            <mxPoint x="-177" y="9" as="offset" />
          </mxGeometry>
        </mxCell>
        <mxCell id="9C-UTcRPpzyKJZOCW3uc-14" value="Loop[1ms]" style="shape=umlFrame;whiteSpace=wrap;html=1;pointerEvents=0;width=80;height=30;fontFamily=Calibri;" parent="1" vertex="1">
          <mxGeometry x="20" y="400" width="1100" height="360" as="geometry" />
        </mxCell>
        <mxCell id="_c2i6fOdkYnZuMsys6Z0-1" value="&lt;span style=&quot;font-size: 15px;&quot;&gt;HAL : Hardware Abstraction Layer&lt;/span&gt;&lt;div style=&quot;font-size: 15px;&quot;&gt;&lt;span style=&quot;font-size: 15px;&quot;&gt;ISB : Interrupt Service for Button&lt;/span&gt;&lt;/div&gt;&lt;div style=&quot;font-size: 15px;&quot;&gt;&lt;div style=&quot;font-size: 15px;&quot;&gt;&lt;span style=&quot;font-size: 15px;&quot;&gt;ISL : Interrupt Service for LED&lt;/span&gt;&lt;/div&gt;&lt;div style=&quot;font-size: 15px;&quot;&gt;&lt;span style=&quot;font-size: 15px;&quot;&gt;XBM : X? Button Manager (State Machine)&lt;/span&gt;&lt;/div&gt;&lt;div style=&quot;font-size: 15px;&quot;&gt;&lt;span style=&quot;font-size: 15px;&quot;&gt;XLM : X? LED Manager&amp;nbsp;&lt;/span&gt;(State Machine)&lt;/div&gt;&lt;/div&gt;&lt;div style=&quot;font-size: 15px;&quot;&gt;&lt;span style=&quot;font-size: 15px;&quot;&gt;&lt;br style=&quot;font-size: 15px;&quot;&gt;&lt;/span&gt;&lt;/div&gt;" style="text;html=1;align=left;verticalAlign=top;whiteSpace=wrap;rounded=0;fontFamily=Calibri;labelBackgroundColor=default;fontSize=15;" vertex="1" parent="1">
          <mxGeometry x="40" y="80" width="260" height="110" as="geometry" />
        </mxCell>
        <mxCell id="_c2i6fOdkYnZuMsys6Z0-2" value="&lt;div style=&quot;font-size: 15px;&quot;&gt;&lt;span style=&quot;font-size: 15px;&quot;&gt;TOB : Task Of Button&lt;/span&gt;&lt;/div&gt;&lt;div style=&quot;font-size: 15px;&quot;&gt;TOL : Task of LED&lt;br&gt;&lt;/div&gt;&lt;div style=&quot;font-size: 15px;&quot;&gt;&lt;div&gt;TOS : Task of SWD (Serial Wire Debug)&lt;/div&gt;&lt;/div&gt;" style="text;html=1;align=left;verticalAlign=top;whiteSpace=wrap;rounded=0;fontFamily=Calibri;labelBackgroundColor=default;fontSize=15;" vertex="1" parent="1">
          <mxGeometry x="320" y="80" width="260" height="70" as="geometry" />
        </mxCell>
      </root>
    </mxGraphModel>
  </diagram>
  <diagram id="-A3lRD6Zxh1JfVYZe21v" name="DataStructure">
    <mxGraphModel dx="1434" dy="844" grid="1" gridSize="10" guides="1" tooltips="1" connect="1" arrows="1" fold="1" page="1" pageScale="1" pageWidth="1654" pageHeight="1169" math="0" shadow="0">
      <root>
        <mxCell id="0" />
        <mxCell id="1" parent="0" />
        <mxCell id="npdudLizhrZokO_PPbRS-31" value="tenuXbmState" style="swimlane;fontStyle=0;align=center;verticalAlign=top;childLayout=stackLayout;horizontal=1;startSize=26;horizontalStack=0;resizeParent=1;resizeLast=0;collapsible=1;marginBottom=0;rounded=0;shadow=0;strokeWidth=1;fontFamily=Calibri;" parent="1" vertex="1">
          <mxGeometry x="40" y="200" width="160" height="130" as="geometry">
            <mxRectangle x="40" y="240" width="170" height="26" as="alternateBounds" />
          </mxGeometry>
        </mxCell>
        <mxCell id="npdudLizhrZokO_PPbRS-33" value="" style="line;html=1;strokeWidth=1;align=left;verticalAlign=middle;spacingTop=-1;spacingLeft=3;spacingRight=3;rotatable=0;labelPosition=right;points=[];portConstraint=eastwest;fontFamily=Calibri;" parent="npdudLizhrZokO_PPbRS-31" vertex="1">
          <mxGeometry y="26" width="160" height="8" as="geometry" />
        </mxCell>
        <mxCell id="PCsS7zfD3iBX98cN-4-8-11" value="XBM_STT_NA = 0,&#xa;XBM_STT_PSH,&#xa;XBM_STT_RLS,&#xa;XBM_STT_PSH_CFM,&#xa;XBM_STT_RLS_CFM,&#xa;XBM_STT_MAX," style="text;align=left;verticalAlign=top;spacingLeft=4;spacingRight=4;overflow=hidden;rotatable=0;points=[[0,0.5],[1,0.5]];portConstraint=eastwest;fontFamily=Calibri;" vertex="1" parent="npdudLizhrZokO_PPbRS-31">
          <mxGeometry y="34" width="160" height="96" as="geometry" />
        </mxCell>
        <mxCell id="MOLNaCRlUQmX6Axn7L7W-1" value="&lt;h1 style=&quot;margin-top: 0px;&quot;&gt;ALM Data Structure&lt;/h1&gt;&lt;p&gt;&lt;br&gt;&lt;/p&gt;&lt;p&gt;&lt;br&gt;&lt;/p&gt;" style="text;html=1;whiteSpace=wrap;overflow=hidden;rounded=0;fontFamily=Calibri;" parent="1" vertex="1">
          <mxGeometry x="40" y="40" width="420" height="50" as="geometry" />
        </mxCell>
        <mxCell id="MOLNaCRlUQmX6Axn7L7W-2" value="&lt;span style=&quot;font-size: 15px;&quot;&gt;HAL : Hardware Abstraction Layer&lt;/span&gt;&lt;div style=&quot;font-size: 15px;&quot;&gt;&lt;span style=&quot;font-size: 15px;&quot;&gt;ISB : Interrupt Service for Button&lt;/span&gt;&lt;/div&gt;&lt;div style=&quot;font-size: 15px;&quot;&gt;&lt;div style=&quot;font-size: 15px;&quot;&gt;&lt;span style=&quot;font-size: 15px;&quot;&gt;ISL : Interrupt Service for LED&lt;/span&gt;&lt;/div&gt;&lt;div style=&quot;font-size: 15px;&quot;&gt;&lt;span style=&quot;font-size: 15px;&quot;&gt;XBM : X? Button Manager (State Machine)&lt;/span&gt;&lt;/div&gt;&lt;div style=&quot;font-size: 15px;&quot;&gt;&lt;span style=&quot;font-size: 15px;&quot;&gt;XLM : X? LED Manager&amp;nbsp;&lt;/span&gt;(State Machine)&lt;/div&gt;&lt;/div&gt;&lt;div style=&quot;font-size: 15px;&quot;&gt;&lt;span style=&quot;font-size: 15px;&quot;&gt;&lt;br style=&quot;font-size: 15px;&quot;&gt;&lt;/span&gt;&lt;/div&gt;" style="text;html=1;align=left;verticalAlign=top;whiteSpace=wrap;rounded=0;fontFamily=Calibri;labelBackgroundColor=default;fontSize=15;" parent="1" vertex="1">
          <mxGeometry x="40" y="80" width="260" height="100" as="geometry" />
        </mxCell>
        <mxCell id="MOLNaCRlUQmX6Axn7L7W-3" value="&lt;div style=&quot;font-size: 15px;&quot;&gt;&lt;span style=&quot;font-size: 15px;&quot;&gt;TOB : Task Of Button&lt;/span&gt;&lt;/div&gt;&lt;div style=&quot;font-size: 15px;&quot;&gt;&lt;span style=&quot;font-size: 15px;&quot;&gt;TOS : Task of SWD (Serial Wire Debug)&lt;/span&gt;&lt;/div&gt;&lt;div style=&quot;font-size: 15px;&quot;&gt;TOL : Task of LED&lt;span style=&quot;font-size: 15px;&quot;&gt;&lt;br&gt;&lt;/span&gt;&lt;/div&gt;" style="text;html=1;align=left;verticalAlign=top;whiteSpace=wrap;rounded=0;fontFamily=Calibri;labelBackgroundColor=default;fontSize=15;" parent="1" vertex="1">
          <mxGeometry x="320" y="80" width="260" height="80" as="geometry" />
        </mxCell>
        <mxCell id="PCsS7zfD3iBX98cN-4-8-12" value="tenuXbmEvent" style="swimlane;fontStyle=0;align=center;verticalAlign=top;childLayout=stackLayout;horizontal=1;startSize=26;horizontalStack=0;resizeParent=1;resizeLast=0;collapsible=1;marginBottom=0;rounded=0;shadow=0;strokeWidth=1;fontFamily=Calibri;" vertex="1" parent="1">
          <mxGeometry x="240" y="200" width="160" height="100" as="geometry">
            <mxRectangle x="280" y="240" width="170" height="26" as="alternateBounds" />
          </mxGeometry>
        </mxCell>
        <mxCell id="PCsS7zfD3iBX98cN-4-8-13" value="" style="line;html=1;strokeWidth=1;align=left;verticalAlign=middle;spacingTop=-1;spacingLeft=3;spacingRight=3;rotatable=0;labelPosition=right;points=[];portConstraint=eastwest;fontFamily=Calibri;" vertex="1" parent="PCsS7zfD3iBX98cN-4-8-12">
          <mxGeometry y="26" width="160" height="8" as="geometry" />
        </mxCell>
        <mxCell id="PCsS7zfD3iBX98cN-4-8-14" value="XBM_EVT_NA = 0,&#xa;XBM_EVT_PSH,&#xa;XBM_EVT_RLS,&#xa;XBM_EVT_MAX," style="text;align=left;verticalAlign=top;spacingLeft=4;spacingRight=4;overflow=hidden;rotatable=0;points=[[0,0.5],[1,0.5]];portConstraint=eastwest;fontFamily=Calibri;" vertex="1" parent="PCsS7zfD3iBX98cN-4-8-12">
          <mxGeometry y="34" width="160" height="66" as="geometry" />
        </mxCell>
        <mxCell id="PCsS7zfD3iBX98cN-4-8-15" value="tenuAlmStateFunction" style="swimlane;fontStyle=0;align=center;verticalAlign=top;childLayout=stackLayout;horizontal=1;startSize=26;horizontalStack=0;resizeParent=1;resizeLast=0;collapsible=1;marginBottom=0;rounded=0;shadow=0;strokeWidth=1;fontFamily=Calibri;" vertex="1" parent="1">
          <mxGeometry x="440" y="200" width="160" height="120" as="geometry">
            <mxRectangle x="440" y="240" width="170" height="26" as="alternateBounds" />
          </mxGeometry>
        </mxCell>
        <mxCell id="PCsS7zfD3iBX98cN-4-8-16" value="" style="line;html=1;strokeWidth=1;align=left;verticalAlign=middle;spacingTop=-1;spacingLeft=3;spacingRight=3;rotatable=0;labelPosition=right;points=[];portConstraint=eastwest;fontFamily=Calibri;" vertex="1" parent="PCsS7zfD3iBX98cN-4-8-15">
          <mxGeometry y="26" width="160" height="8" as="geometry" />
        </mxCell>
        <mxCell id="PCsS7zfD3iBX98cN-4-8-17" value="ALM_STT_FTN_NA = 0,&#xa;ALM_STT_FTN_ENTRY,&#xa;ALM_STT_FTN_DO,&#xa;ALM_STT_FTN_EXIT,&#xa;ALM_STT_FTN_MAX," style="text;align=left;verticalAlign=top;spacingLeft=4;spacingRight=4;overflow=hidden;rotatable=0;points=[[0,0.5],[1,0.5]];portConstraint=eastwest;fontFamily=Calibri;" vertex="1" parent="PCsS7zfD3iBX98cN-4-8-15">
          <mxGeometry y="34" width="160" height="86" as="geometry" />
        </mxCell>
        <mxCell id="PCsS7zfD3iBX98cN-4-8-18" value="tenuXlmState" style="swimlane;fontStyle=0;align=center;verticalAlign=top;childLayout=stackLayout;horizontal=1;startSize=26;horizontalStack=0;resizeParent=1;resizeLast=0;collapsible=1;marginBottom=0;rounded=0;shadow=0;strokeWidth=1;fontFamily=Calibri;" vertex="1" parent="1">
          <mxGeometry x="640" y="200" width="160" height="130" as="geometry">
            <mxRectangle x="40" y="240" width="170" height="26" as="alternateBounds" />
          </mxGeometry>
        </mxCell>
        <mxCell id="PCsS7zfD3iBX98cN-4-8-19" value="" style="line;html=1;strokeWidth=1;align=left;verticalAlign=middle;spacingTop=-1;spacingLeft=3;spacingRight=3;rotatable=0;labelPosition=right;points=[];portConstraint=eastwest;fontFamily=Calibri;" vertex="1" parent="PCsS7zfD3iBX98cN-4-8-18">
          <mxGeometry y="26" width="160" height="8" as="geometry" />
        </mxCell>
        <mxCell id="PCsS7zfD3iBX98cN-4-8-20" value="XLM_STT_NA = 0,&#xa;XLM_STT_OFF,&#xa;XLM_STT_ON,&#xa;XLM_STT_FI,&#xa;XLM_STT_FO,&#xa;XLM_STT_MAX," style="text;align=left;verticalAlign=top;spacingLeft=4;spacingRight=4;overflow=hidden;rotatable=0;points=[[0,0.5],[1,0.5]];portConstraint=eastwest;fontFamily=Calibri;" vertex="1" parent="PCsS7zfD3iBX98cN-4-8-18">
          <mxGeometry y="34" width="160" height="96" as="geometry" />
        </mxCell>
        <mxCell id="PCsS7zfD3iBX98cN-4-8-21" value="tenuXlmEvent" style="swimlane;fontStyle=0;align=center;verticalAlign=top;childLayout=stackLayout;horizontal=1;startSize=26;horizontalStack=0;resizeParent=1;resizeLast=0;collapsible=1;marginBottom=0;rounded=0;shadow=0;strokeWidth=1;fontFamily=Calibri;" vertex="1" parent="1">
          <mxGeometry x="840" y="200" width="160" height="130" as="geometry">
            <mxRectangle x="840" y="200" width="170" height="26" as="alternateBounds" />
          </mxGeometry>
        </mxCell>
        <mxCell id="PCsS7zfD3iBX98cN-4-8-22" value="" style="line;html=1;strokeWidth=1;align=left;verticalAlign=middle;spacingTop=-1;spacingLeft=3;spacingRight=3;rotatable=0;labelPosition=right;points=[];portConstraint=eastwest;fontFamily=Calibri;" vertex="1" parent="PCsS7zfD3iBX98cN-4-8-21">
          <mxGeometry y="26" width="160" height="8" as="geometry" />
        </mxCell>
        <mxCell id="PCsS7zfD3iBX98cN-4-8-23" value="XBM_EVT_NA = 0,&#xa;XBM_EVT_ON,&#xa;XBM_EVT_OFF,&#xa;XBM_EVT_ON_FRC,&#xa;XBM_EVT_OFF_FRC,&#xa;XBM_EVT_MAX," style="text;align=left;verticalAlign=top;spacingLeft=4;spacingRight=4;overflow=hidden;rotatable=0;points=[[0,0.5],[1,0.5]];portConstraint=eastwest;fontFamily=Calibri;" vertex="1" parent="PCsS7zfD3iBX98cN-4-8-21">
          <mxGeometry y="34" width="160" height="96" as="geometry" />
        </mxCell>
        <mxCell id="PCsS7zfD3iBX98cN-4-8-24" value="tpfAlmStateFunction" style="swimlane;fontStyle=0;align=center;verticalAlign=top;childLayout=stackLayout;horizontal=1;startSize=26;horizontalStack=0;resizeParent=1;resizeLast=0;collapsible=1;marginBottom=0;rounded=0;shadow=0;strokeWidth=1;fontFamily=Calibri;" vertex="1" parent="1">
          <mxGeometry x="440" y="360" width="160" height="60" as="geometry">
            <mxRectangle x="440" y="400" width="170" height="26" as="alternateBounds" />
          </mxGeometry>
        </mxCell>
        <mxCell id="PCsS7zfD3iBX98cN-4-8-25" value="" style="line;html=1;strokeWidth=1;align=left;verticalAlign=middle;spacingTop=-1;spacingLeft=3;spacingRight=3;rotatable=0;labelPosition=right;points=[];portConstraint=eastwest;fontFamily=Calibri;" vertex="1" parent="PCsS7zfD3iBX98cN-4-8-24">
          <mxGeometry y="26" width="160" height="8" as="geometry" />
        </mxCell>
        <mxCell id="PCsS7zfD3iBX98cN-4-8-26" value="void (*ftn)(void* pvArgs)" style="text;align=left;verticalAlign=top;spacingLeft=4;spacingRight=4;overflow=hidden;rotatable=0;points=[[0,0.5],[1,0.5]];portConstraint=eastwest;fontFamily=Calibri;" vertex="1" parent="PCsS7zfD3iBX98cN-4-8-24">
          <mxGeometry y="34" width="160" height="26" as="geometry" />
        </mxCell>
        <mxCell id="PCsS7zfD3iBX98cN-4-8-27" value="tenuXbmEventNotify" style="swimlane;fontStyle=0;align=center;verticalAlign=top;childLayout=stackLayout;horizontal=1;startSize=26;horizontalStack=0;resizeParent=1;resizeLast=0;collapsible=1;marginBottom=0;rounded=0;shadow=0;strokeWidth=1;fontFamily=Calibri;" vertex="1" parent="1">
          <mxGeometry x="240" y="320" width="160" height="100" as="geometry">
            <mxRectangle x="280" y="240" width="170" height="26" as="alternateBounds" />
          </mxGeometry>
        </mxCell>
        <mxCell id="PCsS7zfD3iBX98cN-4-8-28" value="" style="line;html=1;strokeWidth=1;align=left;verticalAlign=middle;spacingTop=-1;spacingLeft=3;spacingRight=3;rotatable=0;labelPosition=right;points=[];portConstraint=eastwest;fontFamily=Calibri;" vertex="1" parent="PCsS7zfD3iBX98cN-4-8-27">
          <mxGeometry y="26" width="160" height="8" as="geometry" />
        </mxCell>
        <mxCell id="PCsS7zfD3iBX98cN-4-8-29" value="XBM_EVT_NTF_NA = 0,&#xa;XBM_EVT_NTF_SHORT,&#xa;XBM_EVT_NTF_LONG,&#xa;XBM_EVT_MAX," style="text;align=left;verticalAlign=top;spacingLeft=4;spacingRight=4;overflow=hidden;rotatable=0;points=[[0,0.5],[1,0.5]];portConstraint=eastwest;fontFamily=Calibri;" vertex="1" parent="PCsS7zfD3iBX98cN-4-8-27">
          <mxGeometry y="34" width="160" height="66" as="geometry" />
        </mxCell>
        <mxCell id="3Iz6LogmUk_vfCsuW31i-1" value="ISB" style="swimlane;fontStyle=0;align=center;verticalAlign=top;childLayout=stackLayout;horizontal=1;startSize=26;horizontalStack=0;resizeParent=1;resizeLast=0;collapsible=1;marginBottom=0;rounded=0;shadow=0;strokeWidth=1;fontFamily=Calibri;" vertex="1" parent="1">
          <mxGeometry x="40" y="840" width="400" height="160" as="geometry">
            <mxRectangle x="40" y="560" width="160" height="26" as="alternateBounds" />
          </mxGeometry>
        </mxCell>
        <mxCell id="3Iz6LogmUk_vfCsuW31i-2" value="- genuIsbEvent : tenuIsbEvent" style="text;align=left;verticalAlign=top;spacingLeft=4;spacingRight=4;overflow=hidden;rotatable=0;points=[[0,0.5],[1,0.5]];portConstraint=eastwest;fontFamily=Calibri;" vertex="1" parent="3Iz6LogmUk_vfCsuW31i-1">
          <mxGeometry y="26" width="400" height="24" as="geometry" />
        </mxCell>
        <mxCell id="3Iz6LogmUk_vfCsuW31i-5" value="" style="line;html=1;strokeWidth=1;align=left;verticalAlign=middle;spacingTop=-1;spacingLeft=3;spacingRight=3;rotatable=0;labelPosition=right;points=[];portConstraint=eastwest;fontFamily=Calibri;" vertex="1" parent="3Iz6LogmUk_vfCsuW31i-1">
          <mxGeometry y="50" width="400" height="8" as="geometry" />
        </mxCell>
        <mxCell id="3Iz6LogmUk_vfCsuW31i-6" value="+ vidIsbInitialize()" style="text;align=left;verticalAlign=top;spacingLeft=4;spacingRight=4;overflow=hidden;rotatable=0;points=[[0,0.5],[1,0.5]];portConstraint=eastwest;fontFamily=Calibri;" vertex="1" parent="3Iz6LogmUk_vfCsuW31i-1">
          <mxGeometry y="58" width="400" height="24" as="geometry" />
        </mxCell>
        <mxCell id="Sdo59r324vIRJG5PpZih-8" value="+ vidIsbService()" style="text;align=left;verticalAlign=top;spacingLeft=4;spacingRight=4;overflow=hidden;rotatable=0;points=[[0,0.5],[1,0.5]];portConstraint=eastwest;fontFamily=Calibri;" vertex="1" parent="3Iz6LogmUk_vfCsuW31i-1">
          <mxGeometry y="82" width="400" height="24" as="geometry" />
        </mxCell>
        <mxCell id="lgy8L8aZcJibx2Bf2fBC-2" value="+ enuIsbRetrieveEvent() : tenuIsbEvent" style="text;align=left;verticalAlign=top;spacingLeft=4;spacingRight=4;overflow=hidden;rotatable=0;points=[[0,0.5],[1,0.5]];portConstraint=eastwest;fontFamily=Calibri;" vertex="1" parent="3Iz6LogmUk_vfCsuW31i-1">
          <mxGeometry y="106" width="400" height="24" as="geometry" />
        </mxCell>
        <mxCell id="lgy8L8aZcJibx2Bf2fBC-1" value="+ vidXbmNotifyCallback(tenuXbmNotify enuType, tstrXbmNotifyArgs* pArgs)" style="text;align=left;verticalAlign=top;spacingLeft=4;spacingRight=4;overflow=hidden;rotatable=0;points=[[0,0.5],[1,0.5]];portConstraint=eastwest;fontFamily=Calibri;" vertex="1" parent="3Iz6LogmUk_vfCsuW31i-1">
          <mxGeometry y="130" width="400" height="24" as="geometry" />
        </mxCell>
        <mxCell id="7cwPURhj6fQND21dLYq8-1" value="XBM" style="swimlane;fontStyle=0;align=center;verticalAlign=top;childLayout=stackLayout;horizontal=1;startSize=26;horizontalStack=0;resizeParent=1;resizeLast=0;collapsible=1;marginBottom=0;rounded=0;shadow=0;strokeWidth=1;fontFamily=Calibri;" vertex="1" parent="1">
          <mxGeometry x="850" y="380" width="160" height="138" as="geometry">
            <mxRectangle x="230" y="140" width="160" height="26" as="alternateBounds" />
          </mxGeometry>
        </mxCell>
        <mxCell id="7cwPURhj6fQND21dLYq8-2" value="Name" style="text;align=left;verticalAlign=top;spacingLeft=4;spacingRight=4;overflow=hidden;rotatable=0;points=[[0,0.5],[1,0.5]];portConstraint=eastwest;fontFamily=Calibri;" vertex="1" parent="7cwPURhj6fQND21dLYq8-1">
          <mxGeometry y="26" width="160" height="26" as="geometry" />
        </mxCell>
        <mxCell id="7cwPURhj6fQND21dLYq8-3" value="Phone Number" style="text;align=left;verticalAlign=top;spacingLeft=4;spacingRight=4;overflow=hidden;rotatable=0;points=[[0,0.5],[1,0.5]];portConstraint=eastwest;rounded=0;shadow=0;html=0;fontFamily=Calibri;" vertex="1" parent="7cwPURhj6fQND21dLYq8-1">
          <mxGeometry y="52" width="160" height="26" as="geometry" />
        </mxCell>
        <mxCell id="7cwPURhj6fQND21dLYq8-4" value="Email Address" style="text;align=left;verticalAlign=top;spacingLeft=4;spacingRight=4;overflow=hidden;rotatable=0;points=[[0,0.5],[1,0.5]];portConstraint=eastwest;rounded=0;shadow=0;html=0;fontFamily=Calibri;" vertex="1" parent="7cwPURhj6fQND21dLYq8-1">
          <mxGeometry y="78" width="160" height="26" as="geometry" />
        </mxCell>
        <mxCell id="7cwPURhj6fQND21dLYq8-5" value="" style="line;html=1;strokeWidth=1;align=left;verticalAlign=middle;spacingTop=-1;spacingLeft=3;spacingRight=3;rotatable=0;labelPosition=right;points=[];portConstraint=eastwest;fontFamily=Calibri;" vertex="1" parent="7cwPURhj6fQND21dLYq8-1">
          <mxGeometry y="104" width="160" height="8" as="geometry" />
        </mxCell>
        <mxCell id="7cwPURhj6fQND21dLYq8-6" value="Purchase Parking Pass" style="text;align=left;verticalAlign=top;spacingLeft=4;spacingRight=4;overflow=hidden;rotatable=0;points=[[0,0.5],[1,0.5]];portConstraint=eastwest;fontFamily=Calibri;" vertex="1" parent="7cwPURhj6fQND21dLYq8-1">
          <mxGeometry y="112" width="160" height="26" as="geometry" />
        </mxCell>
        <mxCell id="7cwPURhj6fQND21dLYq8-7" value="XLM" style="swimlane;fontStyle=0;align=center;verticalAlign=top;childLayout=stackLayout;horizontal=1;startSize=26;horizontalStack=0;resizeParent=1;resizeLast=0;collapsible=1;marginBottom=0;rounded=0;shadow=0;strokeWidth=1;fontFamily=Calibri;" vertex="1" parent="1">
          <mxGeometry x="1050" y="380" width="160" height="138" as="geometry">
            <mxRectangle x="230" y="140" width="160" height="26" as="alternateBounds" />
          </mxGeometry>
        </mxCell>
        <mxCell id="7cwPURhj6fQND21dLYq8-8" value="Name" style="text;align=left;verticalAlign=top;spacingLeft=4;spacingRight=4;overflow=hidden;rotatable=0;points=[[0,0.5],[1,0.5]];portConstraint=eastwest;fontFamily=Calibri;" vertex="1" parent="7cwPURhj6fQND21dLYq8-7">
          <mxGeometry y="26" width="160" height="26" as="geometry" />
        </mxCell>
        <mxCell id="7cwPURhj6fQND21dLYq8-9" value="Phone Number" style="text;align=left;verticalAlign=top;spacingLeft=4;spacingRight=4;overflow=hidden;rotatable=0;points=[[0,0.5],[1,0.5]];portConstraint=eastwest;rounded=0;shadow=0;html=0;fontFamily=Calibri;" vertex="1" parent="7cwPURhj6fQND21dLYq8-7">
          <mxGeometry y="52" width="160" height="26" as="geometry" />
        </mxCell>
        <mxCell id="7cwPURhj6fQND21dLYq8-10" value="Email Address" style="text;align=left;verticalAlign=top;spacingLeft=4;spacingRight=4;overflow=hidden;rotatable=0;points=[[0,0.5],[1,0.5]];portConstraint=eastwest;rounded=0;shadow=0;html=0;fontFamily=Calibri;" vertex="1" parent="7cwPURhj6fQND21dLYq8-7">
          <mxGeometry y="78" width="160" height="26" as="geometry" />
        </mxCell>
        <mxCell id="7cwPURhj6fQND21dLYq8-11" value="" style="line;html=1;strokeWidth=1;align=left;verticalAlign=middle;spacingTop=-1;spacingLeft=3;spacingRight=3;rotatable=0;labelPosition=right;points=[];portConstraint=eastwest;fontFamily=Calibri;" vertex="1" parent="7cwPURhj6fQND21dLYq8-7">
          <mxGeometry y="104" width="160" height="8" as="geometry" />
        </mxCell>
        <mxCell id="7cwPURhj6fQND21dLYq8-12" value="Purchase Parking Pass" style="text;align=left;verticalAlign=top;spacingLeft=4;spacingRight=4;overflow=hidden;rotatable=0;points=[[0,0.5],[1,0.5]];portConstraint=eastwest;fontFamily=Calibri;" vertex="1" parent="7cwPURhj6fQND21dLYq8-7">
          <mxGeometry y="112" width="160" height="26" as="geometry" />
        </mxCell>
        <mxCell id="Sdo59r324vIRJG5PpZih-4" value="tenuAlmNotify" style="swimlane;fontStyle=0;align=center;verticalAlign=top;childLayout=stackLayout;horizontal=1;startSize=26;horizontalStack=0;resizeParent=1;resizeLast=0;collapsible=1;marginBottom=0;rounded=0;shadow=0;strokeWidth=1;fontFamily=Calibri;" vertex="1" parent="1">
          <mxGeometry x="440" y="480" width="160" height="120" as="geometry">
            <mxRectangle x="440" y="240" width="170" height="26" as="alternateBounds" />
          </mxGeometry>
        </mxCell>
        <mxCell id="Sdo59r324vIRJG5PpZih-5" value="" style="line;html=1;strokeWidth=1;align=left;verticalAlign=middle;spacingTop=-1;spacingLeft=3;spacingRight=3;rotatable=0;labelPosition=right;points=[];portConstraint=eastwest;fontFamily=Calibri;" vertex="1" parent="Sdo59r324vIRJG5PpZih-4">
          <mxGeometry y="26" width="160" height="8" as="geometry" />
        </mxCell>
        <mxCell id="Sdo59r324vIRJG5PpZih-6" value="ALM_STT_FTN_NA = 0,&#xa;ALM_STT_FTN_ENTRY,&#xa;ALM_STT_FTN_DO,&#xa;ALM_STT_FTN_EXIT,&#xa;ALM_STT_FTN_MAX," style="text;align=left;verticalAlign=top;spacingLeft=4;spacingRight=4;overflow=hidden;rotatable=0;points=[[0,0.5],[1,0.5]];portConstraint=eastwest;fontFamily=Calibri;" vertex="1" parent="Sdo59r324vIRJG5PpZih-4">
          <mxGeometry y="34" width="160" height="86" as="geometry" />
        </mxCell>
        <mxCell id="wjU-ygEiLNbbINR5YT6y-1" value="ISL" style="swimlane;fontStyle=0;align=center;verticalAlign=top;childLayout=stackLayout;horizontal=1;startSize=26;horizontalStack=0;resizeParent=1;resizeLast=0;collapsible=1;marginBottom=0;rounded=0;shadow=0;strokeWidth=1;fontFamily=Calibri;" vertex="1" parent="1">
          <mxGeometry x="520" y="840" width="400" height="160" as="geometry">
            <mxRectangle x="40" y="560" width="160" height="26" as="alternateBounds" />
          </mxGeometry>
        </mxCell>
        <mxCell id="wjU-ygEiLNbbINR5YT6y-2" value="- genuIsbEvent : tenuIsbEvent" style="text;align=left;verticalAlign=top;spacingLeft=4;spacingRight=4;overflow=hidden;rotatable=0;points=[[0,0.5],[1,0.5]];portConstraint=eastwest;fontFamily=Calibri;" vertex="1" parent="wjU-ygEiLNbbINR5YT6y-1">
          <mxGeometry y="26" width="400" height="24" as="geometry" />
        </mxCell>
        <mxCell id="wjU-ygEiLNbbINR5YT6y-3" value="" style="line;html=1;strokeWidth=1;align=left;verticalAlign=middle;spacingTop=-1;spacingLeft=3;spacingRight=3;rotatable=0;labelPosition=right;points=[];portConstraint=eastwest;fontFamily=Calibri;" vertex="1" parent="wjU-ygEiLNbbINR5YT6y-1">
          <mxGeometry y="50" width="400" height="8" as="geometry" />
        </mxCell>
        <mxCell id="wjU-ygEiLNbbINR5YT6y-4" value="+ vidIsbInitialize()" style="text;align=left;verticalAlign=top;spacingLeft=4;spacingRight=4;overflow=hidden;rotatable=0;points=[[0,0.5],[1,0.5]];portConstraint=eastwest;fontFamily=Calibri;" vertex="1" parent="wjU-ygEiLNbbINR5YT6y-1">
          <mxGeometry y="58" width="400" height="24" as="geometry" />
        </mxCell>
        <mxCell id="wjU-ygEiLNbbINR5YT6y-5" value="+ vidIsbService()" style="text;align=left;verticalAlign=top;spacingLeft=4;spacingRight=4;overflow=hidden;rotatable=0;points=[[0,0.5],[1,0.5]];portConstraint=eastwest;fontFamily=Calibri;" vertex="1" parent="wjU-ygEiLNbbINR5YT6y-1">
          <mxGeometry y="82" width="400" height="24" as="geometry" />
        </mxCell>
        <mxCell id="wjU-ygEiLNbbINR5YT6y-6" value="+ enuIsbRetrieveEvent() : tenuIsbEvent" style="text;align=left;verticalAlign=top;spacingLeft=4;spacingRight=4;overflow=hidden;rotatable=0;points=[[0,0.5],[1,0.5]];portConstraint=eastwest;fontFamily=Calibri;" vertex="1" parent="wjU-ygEiLNbbINR5YT6y-1">
          <mxGeometry y="106" width="400" height="24" as="geometry" />
        </mxCell>
        <mxCell id="wjU-ygEiLNbbINR5YT6y-7" value="+ vidXbmNotifyCallback(tenuXbmNotify enuType, tstrXbmNotifyArgs* pArgs)" style="text;align=left;verticalAlign=top;spacingLeft=4;spacingRight=4;overflow=hidden;rotatable=0;points=[[0,0.5],[1,0.5]];portConstraint=eastwest;fontFamily=Calibri;" vertex="1" parent="wjU-ygEiLNbbINR5YT6y-1">
          <mxGeometry y="130" width="400" height="24" as="geometry" />
        </mxCell>
      </root>
    </mxGraphModel>
  </diagram>
  <diagram id="kYoFqigr-Fu7AlaHe0Dz" name="LED StateDiagram">
    <mxGraphModel dx="989" dy="582" grid="1" gridSize="10" guides="1" tooltips="1" connect="1" arrows="1" fold="1" page="1" pageScale="1" pageWidth="1169" pageHeight="827" math="0" shadow="0">
      <root>
        <mxCell id="0" />
        <mxCell id="1" parent="0" />
        <mxCell id="J5d-e5EQaMx3AgM-k_XI-1" value="OFF" style="html=1;align=center;verticalAlign=middle;rounded=1;absoluteArcSize=1;arcSize=10;dashed=0;fontStyle=5;fillColor=#ffe6cc;strokeColor=#d79b00;fontFamily=Calibri;fontSize=20;" parent="1" vertex="1">
          <mxGeometry x="39" y="320" width="120" height="74" as="geometry" />
        </mxCell>
        <mxCell id="J5d-e5EQaMx3AgM-k_XI-2" value="ON" style="html=1;align=center;verticalAlign=middle;rounded=1;absoluteArcSize=1;arcSize=10;dashed=0;fontStyle=5;fillColor=#ffe6cc;strokeColor=#d79b00;fontFamily=Calibri;fontSize=20;" parent="1" vertex="1">
          <mxGeometry x="520" y="320" width="120" height="74" as="geometry" />
        </mxCell>
        <mxCell id="J5d-e5EQaMx3AgM-k_XI-3" value="Fade In" style="html=1;align=center;verticalAlign=middle;rounded=1;absoluteArcSize=1;arcSize=10;dashed=0;fontStyle=5;fillColor=#ffe6cc;strokeColor=#d79b00;fontFamily=Calibri;fontSize=20;" parent="1" vertex="1">
          <mxGeometry x="280" y="160" width="120" height="74" as="geometry" />
        </mxCell>
        <mxCell id="J5d-e5EQaMx3AgM-k_XI-4" value="Fade Out" style="html=1;align=center;verticalAlign=middle;rounded=1;absoluteArcSize=1;arcSize=10;dashed=0;fontStyle=5;fillColor=#ffe6cc;strokeColor=#d79b00;fontFamily=Calibri;fontSize=20;" parent="1" vertex="1">
          <mxGeometry x="280" y="460" width="120" height="74" as="geometry" />
        </mxCell>
        <mxCell id="J5d-e5EQaMx3AgM-k_XI-5" value="On" style="html=1;verticalAlign=bottom;labelBackgroundColor=none;endArrow=block;endFill=1;exitX=0.5;exitY=0;exitDx=0;exitDy=0;entryX=0;entryY=0.5;entryDx=0;entryDy=0;edgeStyle=orthogonalEdgeStyle;fontColor=#0000FF;fontFamily=Calibri;fontSize=20;" parent="1" source="J5d-e5EQaMx3AgM-k_XI-1" target="J5d-e5EQaMx3AgM-k_XI-3" edge="1">
          <mxGeometry x="-0.9714" y="1" width="160" relative="1" as="geometry">
            <mxPoint x="540" y="530" as="sourcePoint" />
            <mxPoint x="700" y="530" as="targetPoint" />
            <mxPoint as="offset" />
          </mxGeometry>
        </mxCell>
        <mxCell id="J5d-e5EQaMx3AgM-k_XI-6" value="Off" style="html=1;verticalAlign=bottom;labelBackgroundColor=none;endArrow=block;endFill=1;exitX=0.5;exitY=1;exitDx=0;exitDy=0;entryX=1;entryY=0.5;entryDx=0;entryDy=0;edgeStyle=orthogonalEdgeStyle;fontColor=#0000FF;fontFamily=Calibri;fontSize=20;" parent="1" source="J5d-e5EQaMx3AgM-k_XI-2" target="J5d-e5EQaMx3AgM-k_XI-4" edge="1">
          <mxGeometry x="-0.7" y="1" width="160" relative="1" as="geometry">
            <mxPoint x="90" y="300" as="sourcePoint" />
            <mxPoint x="170" y="240" as="targetPoint" />
            <mxPoint as="offset" />
          </mxGeometry>
        </mxCell>
        <mxCell id="J5d-e5EQaMx3AgM-k_XI-7" value="Fade In TMO" style="html=1;verticalAlign=bottom;labelBackgroundColor=none;endArrow=block;endFill=1;dashed=1;exitX=1;exitY=0.5;exitDx=0;exitDy=0;entryX=0.5;entryY=0;entryDx=0;entryDy=0;edgeStyle=orthogonalEdgeStyle;fontStyle=2;fontFamily=Calibri;fontSize=20;" parent="1" source="J5d-e5EQaMx3AgM-k_XI-3" target="J5d-e5EQaMx3AgM-k_XI-2" edge="1">
          <mxGeometry x="-0.4714" y="1" width="160" relative="1" as="geometry">
            <mxPoint x="300" y="340" as="sourcePoint" />
            <mxPoint x="460" y="340" as="targetPoint" />
            <mxPoint as="offset" />
          </mxGeometry>
        </mxCell>
        <mxCell id="J5d-e5EQaMx3AgM-k_XI-8" value="Fade Out TMO" style="html=1;verticalAlign=bottom;labelBackgroundColor=none;endArrow=block;endFill=1;dashed=1;exitX=0;exitY=0.5;exitDx=0;exitDy=0;entryX=0.5;entryY=1;entryDx=0;entryDy=0;edgeStyle=orthogonalEdgeStyle;fontStyle=2;fontFamily=Calibri;fontSize=20;" parent="1" source="J5d-e5EQaMx3AgM-k_XI-4" target="J5d-e5EQaMx3AgM-k_XI-1" edge="1">
          <mxGeometry x="-0.3939" y="29" width="160" relative="1" as="geometry">
            <mxPoint x="250" y="240" as="sourcePoint" />
            <mxPoint x="330" y="300" as="targetPoint" />
            <mxPoint as="offset" />
          </mxGeometry>
        </mxCell>
        <mxCell id="J5d-e5EQaMx3AgM-k_XI-9" value="Force On" style="html=1;verticalAlign=bottom;labelBackgroundColor=none;endArrow=block;endFill=1;exitX=1;exitY=0.25;exitDx=0;exitDy=0;entryX=0;entryY=0.25;entryDx=0;entryDy=0;fontColor=#0000FF;fontFamily=Calibri;fontSize=20;" parent="1" source="J5d-e5EQaMx3AgM-k_XI-1" target="J5d-e5EQaMx3AgM-k_XI-2" edge="1">
          <mxGeometry width="160" relative="1" as="geometry">
            <mxPoint x="330" y="340" as="sourcePoint" />
            <mxPoint x="250" y="400" as="targetPoint" />
          </mxGeometry>
        </mxCell>
        <mxCell id="J5d-e5EQaMx3AgM-k_XI-10" value="Force Off" style="html=1;verticalAlign=bottom;labelBackgroundColor=none;endArrow=block;endFill=1;exitX=0;exitY=0.75;exitDx=0;exitDy=0;entryX=1;entryY=0.75;entryDx=0;entryDy=0;fontColor=#0000FF;fontFamily=Calibri;fontSize=20;" parent="1" source="J5d-e5EQaMx3AgM-k_XI-2" target="J5d-e5EQaMx3AgM-k_XI-1" edge="1">
          <mxGeometry width="160" relative="1" as="geometry">
            <mxPoint x="130" y="310" as="sourcePoint" />
            <mxPoint x="290" y="310" as="targetPoint" />
          </mxGeometry>
        </mxCell>
        <mxCell id="J5d-e5EQaMx3AgM-k_XI-11" value="&lt;div style=&quot;font-size: 20px;&quot;&gt;&lt;b style=&quot;font-size: 20px;&quot;&gt;&lt;u style=&quot;font-size: 20px;&quot;&gt;- State&lt;/u&gt;&lt;/b&gt;&lt;/div&gt;&lt;font color=&quot;#0000ff&quot; style=&quot;font-size: 20px;&quot;&gt;- Event&lt;/font&gt;&lt;div style=&quot;font-size: 20px;&quot;&gt;&lt;i style=&quot;font-size: 20px;&quot;&gt;- Spontaneous Event&lt;/i&gt;&lt;/div&gt;" style="text;html=1;align=left;verticalAlign=middle;whiteSpace=wrap;rounded=0;fontFamily=Calibri;fontSize=20;" parent="1" vertex="1">
          <mxGeometry x="39" y="80" width="221" height="80" as="geometry" />
        </mxCell>
        <mxCell id="OkCq1fcLwAknne_tbGlP-1" value="&lt;h1 style=&quot;margin-top: 0px;&quot;&gt;ALM LED StateDiagram&lt;/h1&gt;" style="text;html=1;whiteSpace=wrap;overflow=hidden;rounded=0;fontFamily=Calibri;" vertex="1" parent="1">
          <mxGeometry x="40" y="40" width="420" height="40" as="geometry" />
        </mxCell>
      </root>
    </mxGraphModel>
  </diagram>
  <diagram id="yRthQZkGb9meFD39ra3o" name="Button StateDiagram">
    <mxGraphModel dx="989" dy="582" grid="1" gridSize="10" guides="1" tooltips="1" connect="1" arrows="1" fold="1" page="1" pageScale="1" pageWidth="1169" pageHeight="827" math="0" shadow="0">
      <root>
        <mxCell id="0" />
        <mxCell id="1" parent="0" />
        <mxCell id="9s6wOotYuHn-jmSz5twW-1" value="Released" style="html=1;align=center;verticalAlign=middle;rounded=1;absoluteArcSize=1;arcSize=10;dashed=0;fontStyle=5;fillColor=#ffe6cc;strokeColor=#d79b00;fontFamily=Calibri;fontSize=20;" parent="1" vertex="1">
          <mxGeometry x="40" y="320" width="120" height="74" as="geometry" />
        </mxCell>
        <mxCell id="9s6wOotYuHn-jmSz5twW-2" value="Pressed" style="html=1;align=center;verticalAlign=middle;rounded=1;absoluteArcSize=1;arcSize=10;dashed=0;fontStyle=5;fillColor=#ffe6cc;strokeColor=#d79b00;fontFamily=Calibri;fontSize=20;" parent="1" vertex="1">
          <mxGeometry x="480" y="320" width="120" height="74" as="geometry" />
        </mxCell>
        <mxCell id="9s6wOotYuHn-jmSz5twW-3" value="Pressed&lt;div style=&quot;font-size: 20px;&quot;&gt;Confirm&lt;/div&gt;" style="html=1;align=center;verticalAlign=middle;rounded=1;absoluteArcSize=1;arcSize=10;dashed=0;fontStyle=5;fillColor=#ffe6cc;strokeColor=#d79b00;fontFamily=Calibri;fontSize=20;" parent="1" vertex="1">
          <mxGeometry x="260" y="200" width="120" height="74" as="geometry" />
        </mxCell>
        <mxCell id="9s6wOotYuHn-jmSz5twW-4" value="Released&lt;div style=&quot;font-size: 20px;&quot;&gt;Confirm&lt;/div&gt;" style="html=1;align=center;verticalAlign=middle;rounded=1;absoluteArcSize=1;arcSize=10;dashed=0;fontStyle=5;fillColor=#ffe6cc;strokeColor=#d79b00;fontFamily=Calibri;fontSize=20;" parent="1" vertex="1">
          <mxGeometry x="260" y="440" width="120" height="74" as="geometry" />
        </mxCell>
        <mxCell id="9s6wOotYuHn-jmSz5twW-5" value="Press" style="html=1;verticalAlign=bottom;labelBackgroundColor=none;endArrow=block;endFill=1;entryX=0;entryY=0.25;entryDx=0;entryDy=0;edgeStyle=elbowEdgeStyle;fontColor=#0000FF;fontFamily=Calibri;fontSize=20;" parent="1" target="9s6wOotYuHn-jmSz5twW-3" edge="1">
          <mxGeometry x="-0.8571" width="160" relative="1" as="geometry">
            <mxPoint x="93" y="320" as="sourcePoint" />
            <mxPoint x="700" y="520" as="targetPoint" />
            <Array as="points">
              <mxPoint x="93" y="270" />
            </Array>
            <mxPoint as="offset" />
          </mxGeometry>
        </mxCell>
        <mxCell id="9s6wOotYuHn-jmSz5twW-6" value="Release" style="html=1;verticalAlign=bottom;labelBackgroundColor=none;endArrow=block;endFill=1;exitX=0.75;exitY=1;exitDx=0;exitDy=0;entryX=1;entryY=0.75;entryDx=0;entryDy=0;edgeStyle=elbowEdgeStyle;fontColor=#0000FF;fontFamily=Calibri;fontSize=20;" parent="1" source="9s6wOotYuHn-jmSz5twW-2" target="9s6wOotYuHn-jmSz5twW-4" edge="1">
          <mxGeometry x="-0.7647" width="160" relative="1" as="geometry">
            <mxPoint x="90" y="290" as="sourcePoint" />
            <mxPoint x="170" y="230" as="targetPoint" />
            <Array as="points">
              <mxPoint x="570" y="440" />
            </Array>
            <mxPoint as="offset" />
          </mxGeometry>
        </mxCell>
        <mxCell id="9s6wOotYuHn-jmSz5twW-7" value="Press Confirmed" style="html=1;verticalAlign=bottom;labelBackgroundColor=none;endArrow=block;endFill=1;dashed=1;exitX=1;exitY=0.5;exitDx=0;exitDy=0;entryX=0.5;entryY=0;entryDx=0;entryDy=0;edgeStyle=orthogonalEdgeStyle;fontStyle=2;fontFamily=Calibri;fontSize=20;" parent="1" source="9s6wOotYuHn-jmSz5twW-3" target="9s6wOotYuHn-jmSz5twW-2" edge="1">
          <mxGeometry x="-0.2857" width="160" relative="1" as="geometry">
            <mxPoint x="300" y="330" as="sourcePoint" />
            <mxPoint x="460" y="330" as="targetPoint" />
            <mxPoint as="offset" />
          </mxGeometry>
        </mxCell>
        <mxCell id="9s6wOotYuHn-jmSz5twW-8" value="Release Confirmed" style="html=1;verticalAlign=bottom;labelBackgroundColor=none;endArrow=block;endFill=1;dashed=1;exitX=0;exitY=0.5;exitDx=0;exitDy=0;edgeStyle=elbowEdgeStyle;fontStyle=2;fontFamily=Calibri;fontSize=20;entryX=0.5;entryY=1;entryDx=0;entryDy=0;" parent="1" source="9s6wOotYuHn-jmSz5twW-4" edge="1" target="9s6wOotYuHn-jmSz5twW-1">
          <mxGeometry x="-0.2381" y="30" width="160" relative="1" as="geometry">
            <mxPoint x="250" y="230" as="sourcePoint" />
            <mxPoint x="120" y="420" as="targetPoint" />
            <Array as="points">
              <mxPoint x="100" y="440" />
            </Array>
            <mxPoint as="offset" />
          </mxGeometry>
        </mxCell>
        <mxCell id="9s6wOotYuHn-jmSz5twW-9" value="Press" style="html=1;verticalAlign=bottom;labelBackgroundColor=none;endArrow=block;endFill=1;exitX=1;exitY=0.25;exitDx=0;exitDy=0;entryX=0.337;entryY=1.011;entryDx=0;entryDy=0;edgeStyle=elbowEdgeStyle;fontColor=#0000FF;fontFamily=Calibri;fontSize=20;entryPerimeter=0;" parent="1" source="9s6wOotYuHn-jmSz5twW-4" target="9s6wOotYuHn-jmSz5twW-2" edge="1">
          <mxGeometry x="-0.6364" width="160" relative="1" as="geometry">
            <mxPoint x="350" y="330" as="sourcePoint" />
            <mxPoint x="250" y="400" as="targetPoint" />
            <Array as="points">
              <mxPoint x="520" y="450" />
            </Array>
            <mxPoint as="offset" />
          </mxGeometry>
        </mxCell>
        <mxCell id="9s6wOotYuHn-jmSz5twW-10" value="Release" style="html=1;verticalAlign=bottom;labelBackgroundColor=none;endArrow=block;endFill=1;exitX=0;exitY=0.75;exitDx=0;exitDy=0;entryX=0.75;entryY=0;entryDx=0;entryDy=0;edgeStyle=elbowEdgeStyle;fontColor=#0000FF;fontFamily=Calibri;fontSize=20;" parent="1" source="9s6wOotYuHn-jmSz5twW-3" target="9s6wOotYuHn-jmSz5twW-1" edge="1">
          <mxGeometry x="-0.4545" width="160" relative="1" as="geometry">
            <mxPoint x="76" y="291" as="sourcePoint" />
            <mxPoint x="170" y="220" as="targetPoint" />
            <Array as="points">
              <mxPoint x="130" y="290" />
            </Array>
            <mxPoint as="offset" />
          </mxGeometry>
        </mxCell>
        <mxCell id="9s6wOotYuHn-jmSz5twW-11" value="&lt;div style=&quot;font-size: 20px;&quot;&gt;&lt;b style=&quot;font-size: 20px;&quot;&gt;&lt;u style=&quot;font-size: 20px;&quot;&gt;- State&lt;/u&gt;&lt;/b&gt;&lt;/div&gt;&lt;font color=&quot;#0000ff&quot; style=&quot;font-size: 20px;&quot;&gt;- Event&lt;/font&gt;&lt;div style=&quot;font-size: 20px;&quot;&gt;&lt;div style=&quot;font-size: 20px;&quot;&gt;&lt;i style=&quot;font-size: 20px;&quot;&gt;- Spontaneous Event&amp;nbsp;&lt;/i&gt;&lt;br style=&quot;font-size: 20px;&quot;&gt;&lt;/div&gt;&lt;/div&gt;" style="text;html=1;align=left;verticalAlign=middle;whiteSpace=wrap;rounded=0;fontFamily=Calibri;fontSize=20;" parent="1" vertex="1">
          <mxGeometry x="42" y="540" width="208" height="60" as="geometry" />
        </mxCell>
        <mxCell id="gSHhoZuHX2AL1f4dP12M-1" value="&lt;div style=&quot;font-size: 20px;&quot;&gt;&lt;b style=&quot;font-size: 20px;&quot;&gt;&lt;u style=&quot;font-size: 20px;&quot;&gt;- State&lt;/u&gt;&lt;/b&gt;&lt;/div&gt;&lt;font color=&quot;#0000ff&quot; style=&quot;font-size: 20px;&quot;&gt;- Event&lt;/font&gt;&lt;div style=&quot;font-size: 20px;&quot;&gt;&lt;i style=&quot;font-size: 20px;&quot;&gt;- Spontaneous Event&lt;/i&gt;&lt;/div&gt;" style="text;html=1;align=left;verticalAlign=middle;whiteSpace=wrap;rounded=0;fontFamily=Calibri;fontSize=20;" vertex="1" parent="1">
          <mxGeometry x="39" y="80" width="221" height="80" as="geometry" />
        </mxCell>
        <mxCell id="gSHhoZuHX2AL1f4dP12M-2" value="&lt;h1 style=&quot;margin-top: 0px;&quot;&gt;ALM Button StateDiagram&lt;/h1&gt;" style="text;html=1;whiteSpace=wrap;overflow=hidden;rounded=0;fontFamily=Calibri;" vertex="1" parent="1">
          <mxGeometry x="40" y="40" width="420" height="50" as="geometry" />
        </mxCell>
      </root>
    </mxGraphModel>
  </diagram>
  <diagram id="61iTJb3bCKMx398PxMq9" name="Template">
    <mxGraphModel dx="1434" dy="844" grid="1" gridSize="10" guides="1" tooltips="1" connect="1" arrows="1" fold="1" page="1" pageScale="1" pageWidth="1654" pageHeight="1169" math="0" shadow="0">
      <root>
        <mxCell id="0" />
        <mxCell id="1" parent="0" />
        <mxCell id="F5V060gZzDex1ZHDYC3r-1" value="Person" style="swimlane;fontStyle=2;align=center;verticalAlign=top;childLayout=stackLayout;horizontal=1;startSize=26;horizontalStack=0;resizeParent=1;resizeLast=0;collapsible=1;marginBottom=0;rounded=0;shadow=0;strokeWidth=1;fontFamily=Calibri;" vertex="1" parent="1">
          <mxGeometry x="140" y="40" width="160" height="138" as="geometry">
            <mxRectangle x="230" y="140" width="160" height="26" as="alternateBounds" />
          </mxGeometry>
        </mxCell>
        <mxCell id="F5V060gZzDex1ZHDYC3r-2" value="Name" style="text;align=left;verticalAlign=top;spacingLeft=4;spacingRight=4;overflow=hidden;rotatable=0;points=[[0,0.5],[1,0.5]];portConstraint=eastwest;fontFamily=Calibri;" vertex="1" parent="F5V060gZzDex1ZHDYC3r-1">
          <mxGeometry y="26" width="160" height="26" as="geometry" />
        </mxCell>
        <mxCell id="F5V060gZzDex1ZHDYC3r-3" value="Phone Number" style="text;align=left;verticalAlign=top;spacingLeft=4;spacingRight=4;overflow=hidden;rotatable=0;points=[[0,0.5],[1,0.5]];portConstraint=eastwest;rounded=0;shadow=0;html=0;fontFamily=Calibri;" vertex="1" parent="F5V060gZzDex1ZHDYC3r-1">
          <mxGeometry y="52" width="160" height="26" as="geometry" />
        </mxCell>
        <mxCell id="F5V060gZzDex1ZHDYC3r-4" value="Email Address" style="text;align=left;verticalAlign=top;spacingLeft=4;spacingRight=4;overflow=hidden;rotatable=0;points=[[0,0.5],[1,0.5]];portConstraint=eastwest;rounded=0;shadow=0;html=0;fontFamily=Calibri;" vertex="1" parent="F5V060gZzDex1ZHDYC3r-1">
          <mxGeometry y="78" width="160" height="26" as="geometry" />
        </mxCell>
        <mxCell id="F5V060gZzDex1ZHDYC3r-5" value="" style="line;html=1;strokeWidth=1;align=left;verticalAlign=middle;spacingTop=-1;spacingLeft=3;spacingRight=3;rotatable=0;labelPosition=right;points=[];portConstraint=eastwest;fontFamily=Calibri;" vertex="1" parent="F5V060gZzDex1ZHDYC3r-1">
          <mxGeometry y="104" width="160" height="8" as="geometry" />
        </mxCell>
        <mxCell id="F5V060gZzDex1ZHDYC3r-6" value="Purchase Parking Pass" style="text;align=left;verticalAlign=top;spacingLeft=4;spacingRight=4;overflow=hidden;rotatable=0;points=[[0,0.5],[1,0.5]];portConstraint=eastwest;fontFamily=Calibri;" vertex="1" parent="F5V060gZzDex1ZHDYC3r-1">
          <mxGeometry y="112" width="160" height="26" as="geometry" />
        </mxCell>
        <mxCell id="F5V060gZzDex1ZHDYC3r-7" value="Student" style="swimlane;fontStyle=0;align=center;verticalAlign=top;childLayout=stackLayout;horizontal=1;startSize=26;horizontalStack=0;resizeParent=1;resizeLast=0;collapsible=1;marginBottom=0;rounded=0;shadow=0;strokeWidth=1;fontFamily=Calibri;" vertex="1" parent="1">
          <mxGeometry x="40" y="280" width="160" height="138" as="geometry">
            <mxRectangle x="130" y="380" width="160" height="26" as="alternateBounds" />
          </mxGeometry>
        </mxCell>
        <mxCell id="F5V060gZzDex1ZHDYC3r-8" value="Student Number" style="text;align=left;verticalAlign=top;spacingLeft=4;spacingRight=4;overflow=hidden;rotatable=0;points=[[0,0.5],[1,0.5]];portConstraint=eastwest;fontFamily=Calibri;" vertex="1" parent="F5V060gZzDex1ZHDYC3r-7">
          <mxGeometry y="26" width="160" height="26" as="geometry" />
        </mxCell>
        <mxCell id="F5V060gZzDex1ZHDYC3r-9" value="Average Mark" style="text;align=left;verticalAlign=top;spacingLeft=4;spacingRight=4;overflow=hidden;rotatable=0;points=[[0,0.5],[1,0.5]];portConstraint=eastwest;rounded=0;shadow=0;html=0;fontFamily=Calibri;" vertex="1" parent="F5V060gZzDex1ZHDYC3r-7">
          <mxGeometry y="52" width="160" height="26" as="geometry" />
        </mxCell>
        <mxCell id="F5V060gZzDex1ZHDYC3r-10" value="" style="line;html=1;strokeWidth=1;align=left;verticalAlign=middle;spacingTop=-1;spacingLeft=3;spacingRight=3;rotatable=0;labelPosition=right;points=[];portConstraint=eastwest;fontFamily=Calibri;" vertex="1" parent="F5V060gZzDex1ZHDYC3r-7">
          <mxGeometry y="78" width="160" height="8" as="geometry" />
        </mxCell>
        <mxCell id="F5V060gZzDex1ZHDYC3r-11" value="Is Eligible To Enroll" style="text;align=left;verticalAlign=top;spacingLeft=4;spacingRight=4;overflow=hidden;rotatable=0;points=[[0,0.5],[1,0.5]];portConstraint=eastwest;fontStyle=4;fontFamily=Calibri;" vertex="1" parent="F5V060gZzDex1ZHDYC3r-7">
          <mxGeometry y="86" width="160" height="26" as="geometry" />
        </mxCell>
        <mxCell id="F5V060gZzDex1ZHDYC3r-12" value="Get Seminars Taken" style="text;align=left;verticalAlign=top;spacingLeft=4;spacingRight=4;overflow=hidden;rotatable=0;points=[[0,0.5],[1,0.5]];portConstraint=eastwest;fontFamily=Calibri;" vertex="1" parent="F5V060gZzDex1ZHDYC3r-7">
          <mxGeometry y="112" width="160" height="26" as="geometry" />
        </mxCell>
        <mxCell id="F5V060gZzDex1ZHDYC3r-13" value="" style="endArrow=block;endSize=10;endFill=0;shadow=0;strokeWidth=1;rounded=0;curved=0;edgeStyle=elbowEdgeStyle;elbow=vertical;fontFamily=Calibri;" edge="1" parent="1" source="F5V060gZzDex1ZHDYC3r-7" target="F5V060gZzDex1ZHDYC3r-1">
          <mxGeometry width="160" relative="1" as="geometry">
            <mxPoint x="120" y="123" as="sourcePoint" />
            <mxPoint x="120" y="123" as="targetPoint" />
          </mxGeometry>
        </mxCell>
        <mxCell id="F5V060gZzDex1ZHDYC3r-14" value="Professor" style="swimlane;fontStyle=0;align=center;verticalAlign=top;childLayout=stackLayout;horizontal=1;startSize=26;horizontalStack=0;resizeParent=1;resizeLast=0;collapsible=1;marginBottom=0;rounded=0;shadow=0;strokeWidth=1;fontFamily=Calibri;" vertex="1" parent="1">
          <mxGeometry x="250" y="280" width="160" height="70" as="geometry">
            <mxRectangle x="340" y="380" width="170" height="26" as="alternateBounds" />
          </mxGeometry>
        </mxCell>
        <mxCell id="F5V060gZzDex1ZHDYC3r-15" value="Salary" style="text;align=left;verticalAlign=top;spacingLeft=4;spacingRight=4;overflow=hidden;rotatable=0;points=[[0,0.5],[1,0.5]];portConstraint=eastwest;fontFamily=Calibri;" vertex="1" parent="F5V060gZzDex1ZHDYC3r-14">
          <mxGeometry y="26" width="160" height="26" as="geometry" />
        </mxCell>
        <mxCell id="F5V060gZzDex1ZHDYC3r-16" value="" style="line;html=1;strokeWidth=1;align=left;verticalAlign=middle;spacingTop=-1;spacingLeft=3;spacingRight=3;rotatable=0;labelPosition=right;points=[];portConstraint=eastwest;fontFamily=Calibri;" vertex="1" parent="F5V060gZzDex1ZHDYC3r-14">
          <mxGeometry y="52" width="160" height="8" as="geometry" />
        </mxCell>
        <mxCell id="F5V060gZzDex1ZHDYC3r-17" value="" style="endArrow=block;endSize=10;endFill=0;shadow=0;strokeWidth=1;rounded=0;curved=0;edgeStyle=elbowEdgeStyle;elbow=vertical;fontFamily=Calibri;" edge="1" parent="1" source="F5V060gZzDex1ZHDYC3r-14" target="F5V060gZzDex1ZHDYC3r-1">
          <mxGeometry width="160" relative="1" as="geometry">
            <mxPoint x="130" y="293" as="sourcePoint" />
            <mxPoint x="230" y="191" as="targetPoint" />
          </mxGeometry>
        </mxCell>
        <mxCell id="F5V060gZzDex1ZHDYC3r-18" value="Address" style="swimlane;fontStyle=0;align=center;verticalAlign=top;childLayout=stackLayout;horizontal=1;startSize=26;horizontalStack=0;resizeParent=1;resizeLast=0;collapsible=1;marginBottom=0;rounded=0;shadow=0;strokeWidth=1;fontFamily=Calibri;" vertex="1" parent="1">
          <mxGeometry x="428" y="40" width="160" height="216" as="geometry">
            <mxRectangle x="550" y="140" width="160" height="26" as="alternateBounds" />
          </mxGeometry>
        </mxCell>
        <mxCell id="F5V060gZzDex1ZHDYC3r-19" value="Street" style="text;align=left;verticalAlign=top;spacingLeft=4;spacingRight=4;overflow=hidden;rotatable=0;points=[[0,0.5],[1,0.5]];portConstraint=eastwest;fontFamily=Calibri;" vertex="1" parent="F5V060gZzDex1ZHDYC3r-18">
          <mxGeometry y="26" width="160" height="26" as="geometry" />
        </mxCell>
        <mxCell id="F5V060gZzDex1ZHDYC3r-20" value="City" style="text;align=left;verticalAlign=top;spacingLeft=4;spacingRight=4;overflow=hidden;rotatable=0;points=[[0,0.5],[1,0.5]];portConstraint=eastwest;rounded=0;shadow=0;html=0;fontFamily=Calibri;" vertex="1" parent="F5V060gZzDex1ZHDYC3r-18">
          <mxGeometry y="52" width="160" height="26" as="geometry" />
        </mxCell>
        <mxCell id="F5V060gZzDex1ZHDYC3r-21" value="State" style="text;align=left;verticalAlign=top;spacingLeft=4;spacingRight=4;overflow=hidden;rotatable=0;points=[[0,0.5],[1,0.5]];portConstraint=eastwest;rounded=0;shadow=0;html=0;fontFamily=Calibri;" vertex="1" parent="F5V060gZzDex1ZHDYC3r-18">
          <mxGeometry y="78" width="160" height="26" as="geometry" />
        </mxCell>
        <mxCell id="F5V060gZzDex1ZHDYC3r-22" value="Postal Code" style="text;align=left;verticalAlign=top;spacingLeft=4;spacingRight=4;overflow=hidden;rotatable=0;points=[[0,0.5],[1,0.5]];portConstraint=eastwest;rounded=0;shadow=0;html=0;fontFamily=Calibri;" vertex="1" parent="F5V060gZzDex1ZHDYC3r-18">
          <mxGeometry y="104" width="160" height="26" as="geometry" />
        </mxCell>
        <mxCell id="F5V060gZzDex1ZHDYC3r-23" value="Country" style="text;align=left;verticalAlign=top;spacingLeft=4;spacingRight=4;overflow=hidden;rotatable=0;points=[[0,0.5],[1,0.5]];portConstraint=eastwest;rounded=0;shadow=0;html=0;fontFamily=Calibri;" vertex="1" parent="F5V060gZzDex1ZHDYC3r-18">
          <mxGeometry y="130" width="160" height="26" as="geometry" />
        </mxCell>
        <mxCell id="F5V060gZzDex1ZHDYC3r-24" value="" style="line;html=1;strokeWidth=1;align=left;verticalAlign=middle;spacingTop=-1;spacingLeft=3;spacingRight=3;rotatable=0;labelPosition=right;points=[];portConstraint=eastwest;fontFamily=Calibri;" vertex="1" parent="F5V060gZzDex1ZHDYC3r-18">
          <mxGeometry y="156" width="160" height="8" as="geometry" />
        </mxCell>
        <mxCell id="F5V060gZzDex1ZHDYC3r-25" value="Validate" style="text;align=left;verticalAlign=top;spacingLeft=4;spacingRight=4;overflow=hidden;rotatable=0;points=[[0,0.5],[1,0.5]];portConstraint=eastwest;fontFamily=Calibri;" vertex="1" parent="F5V060gZzDex1ZHDYC3r-18">
          <mxGeometry y="164" width="160" height="26" as="geometry" />
        </mxCell>
        <mxCell id="F5V060gZzDex1ZHDYC3r-26" value="Output As Label" style="text;align=left;verticalAlign=top;spacingLeft=4;spacingRight=4;overflow=hidden;rotatable=0;points=[[0,0.5],[1,0.5]];portConstraint=eastwest;fontFamily=Calibri;" vertex="1" parent="F5V060gZzDex1ZHDYC3r-18">
          <mxGeometry y="190" width="160" height="26" as="geometry" />
        </mxCell>
        <mxCell id="F5V060gZzDex1ZHDYC3r-27" value="" style="endArrow=open;shadow=0;strokeWidth=1;rounded=0;curved=0;endFill=1;edgeStyle=elbowEdgeStyle;elbow=vertical;fontFamily=Calibri;" edge="1" parent="1" source="F5V060gZzDex1ZHDYC3r-1" target="F5V060gZzDex1ZHDYC3r-18">
          <mxGeometry x="0.5" y="41" relative="1" as="geometry">
            <mxPoint x="300" y="112" as="sourcePoint" />
            <mxPoint x="460" y="112" as="targetPoint" />
            <mxPoint x="-40" y="32" as="offset" />
          </mxGeometry>
        </mxCell>
        <mxCell id="F5V060gZzDex1ZHDYC3r-28" value="0..1" style="resizable=0;align=left;verticalAlign=bottom;labelBackgroundColor=none;fontSize=12;fontFamily=Calibri;" connectable="0" vertex="1" parent="F5V060gZzDex1ZHDYC3r-27">
          <mxGeometry x="-1" relative="1" as="geometry">
            <mxPoint y="4" as="offset" />
          </mxGeometry>
        </mxCell>
        <mxCell id="F5V060gZzDex1ZHDYC3r-29" value="1" style="resizable=0;align=right;verticalAlign=bottom;labelBackgroundColor=none;fontSize=12;fontFamily=Calibri;" connectable="0" vertex="1" parent="F5V060gZzDex1ZHDYC3r-27">
          <mxGeometry x="1" relative="1" as="geometry">
            <mxPoint x="-7" y="4" as="offset" />
          </mxGeometry>
        </mxCell>
        <mxCell id="F5V060gZzDex1ZHDYC3r-30" value="lives at" style="text;html=1;resizable=0;points=[];;align=center;verticalAlign=middle;labelBackgroundColor=none;rounded=0;shadow=0;strokeWidth=1;fontSize=12;fontFamily=Calibri;" vertex="1" connectable="0" parent="F5V060gZzDex1ZHDYC3r-27">
          <mxGeometry x="0.5" y="49" relative="1" as="geometry">
            <mxPoint x="-38" y="40" as="offset" />
          </mxGeometry>
        </mxCell>
      </root>
    </mxGraphModel>
  </diagram>
</mxfile>
